<?xml version="1.0" encoding="utf-8"?>
<!-- Generator: Adobe Illustrator 18.0.0, SVG Export Plug-In . SVG Version: 6.00 Build 0)  -->
<!DOCTYPE svg PUBLIC "-//W3C//DTD SVG 1.1//EN" "http://www.w3.org/Graphics/SVG/1.1/DTD/svg11.dtd">
<svg version="1.1" id="Ebene_1" xmlns="http://www.w3.org/2000/svg" xmlns:xlink="http://www.w3.org/1999/xlink" x="0px" y="0px"
	 viewBox="0 0 585 294" enable-background="new 0 0 585 294" xml:space="preserve">
<g>
	<path opacity="0.5" fill="#8ECF9B" enable-background="new    " d="M120.8,246.9h-30c0-6,0.3-32.7,0.9-64.1
		c-15.6,0.3-31.3,0.7-43.8,0.7c-25.2,0-30.5-0.4-35.8-5.7c-11.4-11.6-3.6-36.3-3.5-36.5c1-3.1,2-6.1,35.2-49.6
		C59.5,71.3,75.1,51.2,75.3,51l3.3-4.2l5.3-1.2c1.6-0.4,15.9-3.3,29.6,0.1l12.1,3l-0.7,12.4c-0.9,15.3-1.8,53.5-2.6,91.5
		c11.8-0.2,21.8-0.3,28.3-0.1l-0.7,30c-6.2-0.2-16.3-0.3-28.1-0.1C121.1,213.8,120.8,240.9,120.8,246.9z M36.4,153.6
		c13.4,0.2,37-0.2,55.8-0.5c0.6-28.9,1.2-58,1.9-77.5c-25.9,33.3-52.7,68.7-57.3,76.2C36.6,152.3,36.5,152.9,36.4,153.6z"/>
	<path opacity="0.5" fill="#8ECF9B" enable-background="new    " d="M120.8,246.9h-30c0-6,0.4-30.1,0.8-61c0-1.4,0-2.7,0.1-4.2
		c-4.5,0.2-9,0.3-13.4,0.5c-32.6,0.8-52.5,0.3-53.3,0.2h-1.9l-1.8-0.5c-5.3-1.6-12.1-6.1-15-14c-2.1-5.5-2.9-14.6,4.6-26.3
		c1.2-1.9,2.6-3.3,5.4-6c4.4-4.4,11.8-11.7,17.5-20.2c8-11.7,16.3-25.4,23.7-37.5c14.4-23.6,17.1-27.7,21.9-30.6
		c10.2-6.1,20.1-3.4,28.7-1.1c1.7,0.5,3.4,0.9,5.2,1.4l12.1,3l-0.7,12.4c-0.2,3.8-0.6,6.7-0.9,9.5c-0.7,5.3-1.4,11.2-1.7,26.9
		c0,1.7,0.2,4.8,0.3,7.6c0.2,3.4,0.4,6.9,0.4,9.8c-0.2,11.1-0.3,22.5-0.5,33.8c9.2-0.1,15.4,0.6,20.6,1.2c3,0.3,5.3,0.6,7.8,0.6
		l-0.7,30c-3.7-0.1-6.9-0.4-10.3-0.8c-4.7-0.5-9.9-1.1-17.8-1c0,2-0.1,3.7-0.1,5.7C121.2,215.9,120.8,241.9,120.8,246.9z
		 M41.4,152.6c8.8,0,21.1,0,36.1-0.4c4.8-0.1,9.7-0.3,14.6-0.4c0.2-11.8,0.3-23.8,0.5-35.4c0-1.8-0.2-4.7-0.3-7.6
		c-0.2-3.7-0.4-7.1-0.4-10c0.2-10,0.6-16.5,1-21.4C90,82.1,86.3,88.2,83,93.6c-7.2,11.8-16.1,26.5-24.6,38.8
		C52.9,140.5,46.4,147.6,41.4,152.6z"/>
	<path opacity="0.5" fill="#8ECF9B" enable-background="new    " d="M121.2,255.7l-27.1-12.8c-0.4,0.8-0.5,1.4-0.5,1.4
		c0.8-3.9-0.4-19.3-1.4-33c-0.7-8.6-1.4-18.1-2-28.3c-39.9,1.8-61.8,2.6-62,2.6l-6.6,0.2l-4.6-4.7c-1.4-1.4-2.7-2.6-3.9-3.8
		c-4.3-4.1-9.2-8.7-10.4-16.2c-1.3-8.4,2.7-15.4,7.4-21.6c1-1.3,4-5.5,7.7-10.8c51.7-72.4,56.9-77.5,61.6-80.4
		c10.2-6.1,19.8-2.4,26.2,0.1c2.4,0.9,4.8,1.9,7.5,2.5l12.1,3l-0.7,12.4c-0.3,4.4-0.7,6.5-1.1,8.7c-0.4,1.8-0.9,4.2-1.2,18.6
		c-0.1,2.5-0.6,9.5-1.6,20.7c-0.6,7.5-1.6,18.9-1.6,21c-0.1,5.5-0.1,11,0,16.4c11-0.3,18,0.5,23.7,1.1c3,0.3,5.3,0.6,7.8,0.6
		l-0.7,30c-3.7-0.1-6.9-0.4-10.3-0.8c-5-0.5-10.5-1.1-19.3-1c0.6,9.8,1.3,19,1.9,27.4C124.3,237.8,124.9,248.1,121.2,255.7z
		 M92.8,77.1c-11.4,14.1-40.2,54.5-50.6,69c-2.9,4.1-5.2,7.2-6.6,9.3c9.8-0.4,27.8-1.1,53.4-2.3c-0.1-5.9-0.1-12-0.1-18.2
		c0-2.7,0.6-9.4,1.7-23.1c0.6-7.2,1.4-17,1.5-18.8C92.3,85.5,92.5,80.6,92.8,77.1z"/>
	<path opacity="0.5" fill="#8ECF9B" enable-background="new    " d="M175,291.7l-29.2-7l18.1-75.9c3.9-16.3,7.3-29.9,10.6-43
		c6.1-24.3,11.4-45.3,17.6-75.3c9.6-46.8,20.9-87.5,21-87.9l28.9,8c-0.1,0.4-11.1,40.2-20.5,85.9c-6.3,30.6-11.9,52.9-17.9,76.6
		c-3.3,13.1-6.7,26.6-10.5,42.6L175,291.7z"/>
	<path opacity="0.5" fill="#8ECF9B" enable-background="new    " d="M174.7,292.6l-28.7-8.8c0.1-0.3,9.1-30,19.9-75
		c1.7-7.1,3.2-12.8,4.6-17.8c3.4-12.6,5.9-21.6,7.8-42.5l0.1-0.7l0.1-0.6c1.2-6.4,2.1-11.6,2.9-16.1c3-16.8,4.1-23.1,7.7-40.6
		c9.7-47.3,23.7-87.2,24.3-88.9l28.3,9.9c-0.1,0.4-13.9,39.8-23.2,85c-3.5,17.1-4.6,23.3-7.6,39.8c-0.8,4.3-1.7,9.4-2.8,15.5
		c-2.1,23.1-5,33.7-8.7,47c-1.4,5.1-2.8,10.3-4.4,16.9C184.1,261.8,175.1,291.4,174.7,292.6z"/>
	<path opacity="0.5" fill="#8ECF9B" enable-background="new    " d="M174.5,292.2l-28.3-9.9c0.1-0.4,13.9-39.8,23.2-85
		c3.5-17.1,4.6-23.3,7.6-39.8c0.8-4.3,1.7-9.4,2.8-15.5c2.1-23.1,5-33.7,8.7-47c1.4-5.1,2.8-10.3,4.4-16.9c11-46,20-75.6,20.4-76.8
		l28.7,8.8c-0.1,0.3-9.1,30-19.9,75c-1.7,7.1-3.2,12.8-4.6,17.8c-3.4,12.6-5.9,21.6-7.8,42.5l-0.1,0.7l-0.1,0.6
		c-1.2,6.4-2.1,11.6-2.9,16.1c-3,16.8-4.1,23.1-7.7,40.5C189.1,250.6,175.1,290.5,174.5,292.2z"/>
	<path opacity="0.5" fill="#8ECF9B" enable-background="new    " d="M382,291.7l-29.2-7l18.1-75.9c3.9-16.3,7.3-29.9,10.6-43
		c6.1-24.3,11.4-45.3,17.6-75.3c9.6-46.8,20.9-87.5,21-87.9l28.9,8c-0.1,0.4-11.1,40.2-20.5,85.9c-6.3,30.6-11.9,52.9-17.9,76.6
		c-3.3,13.1-6.7,26.6-10.5,42.6L382,291.7z"/>
	<path opacity="0.5" fill="#8ECF9B" enable-background="new    " d="M381.7,292.6l-28.7-8.8c0.1-0.3,9.1-30,19.9-75
		c1.7-7.1,3.2-12.8,4.6-17.8c3.4-12.6,5.9-21.6,7.8-42.5l0.1-0.7l0.1-0.6c1.2-6.4,2.1-11.6,2.9-16.1c3-16.8,4.1-23.1,7.7-40.6
		c9.7-47.3,23.7-87.2,24.3-88.9l28.3,9.9c-0.1,0.4-13.9,39.8-23.2,85c-3.5,17.1-4.6,23.3-7.6,39.8c-0.8,4.3-1.7,9.4-2.8,15.5
		c-2.1,23.1-5,33.7-8.7,47c-1.4,5.1-2.8,10.3-4.4,16.9C391.1,261.8,382.1,291.4,381.7,292.6z"/>
	<path opacity="0.5" fill="#8ECF9B" enable-background="new    " d="M382.2,289.2l-29.7-4c2.6-19.2,5.5-27.9,9.7-39.9
		c3.5-10.3,7.9-23,14.4-48.7c3.4-13.4,4.4-19.6,6.2-30.8c1-6.1,2.2-13.7,4.2-24.5l0.2-1.1c4.4-16.9,5.8-26.6,7.1-35.2
		c1.2-8.3,2.4-16.2,5.8-27.7c13-44.4,19.7-74.6,19.8-74.9l29.3,6.4c-0.3,1.3-7,31.5-20.4,77c-2.8,9.5-3.7,15.8-4.9,23.7
		c-1.3,8.8-2.9,19.7-7.6,37.8c-1.8,10.2-3,17.5-4,23.4c-1.8,11.2-3,18.6-6.7,33.3c-6.7,27-11.6,41-15.1,51.2
		C386.6,266.6,384.4,272.9,382.2,289.2z"/>
	<path opacity="0.5" fill="#8ECF9B" enable-background="new    " d="M292.2,254.4l-27.5-11.9c0.8-1.8,19.5-44.9,31.4-66.2
		c10.9-19.6,23.7-50,23.8-50.3l0.4-0.9l0.5-0.9c0.1-0.2,14.1-24,19.7-35.4c0.9-2.7,2.1-5.9,3.3-9.2c-10.7-0.2-32.9-0.7-46.4-0.7
		c-17.5,0-43.4,2.5-43.6,2.5L251,51.6c1.1-0.1,27.5-2.7,46.5-2.7c17.3,0,47.8,0.7,52.7,0.9l38.4-2.1L380,69.4
		c-0.1,0.2-8,20.3-11.3,30l-0.3,0.8L368,101c-5.3,11.2-18,33-20.8,37.7c-2.3,5.5-14.1,33.1-24.9,52.3
		C311.1,210.9,292.4,254,292.2,254.4z"/>
	<path opacity="0.5" fill="#8ECF9B" enable-background="new    " d="M292.8,251.9l-28.7-8.7c4.5-14.9,21.5-49,32-67.9
		c5.6-10,8.7-18.6,11.7-27c2.8-7.7,5.7-15.7,10.2-23.9c4.3-7.7,8.9-14.5,13-20.5c4.2-6.1,7.8-11.3,10.3-16.3
		c1.2-3.4,2.7-7.8,4.2-11.8l0,0c-4.1,0-10.1,0.9-16.5,2.1c-9.4,1.7-20.1,3.5-31.6,3.5c-18.5,0-44.5-0.9-45.6-0.9l1-30
		c0.3,0,26.6,0.9,44.6,0.9c8.9,0,17.8-1.6,26.4-3.1c7.7-1.4,15-2.7,21.7-2.7c9.9,0,22.7,3.3,24.1,3.6l16.1,4.2l-5.8,15.6
		c-0.1,0.2-7.2,19.3-10.6,29.1L369,99l-0.4,0.8c-3.5,7.4-8.1,14.1-13,21.3c-3.9,5.7-7.9,11.6-11.6,18.1c-3.3,6-5.6,12.2-8.2,19.4
		c-3.3,9.1-7,19.4-13.7,31.5C310,212.1,295.9,241.6,292.8,251.9z"/>
	<path opacity="0.5" fill="#8ECF9B" enable-background="new    " d="M292.8,252l-28.7-8.7c3.9-13,17.2-47.4,29.7-69.8
		c6-10.8,9.9-19.2,13.6-27.4c3.3-7.2,6.4-14.1,10.7-21.6c4.3-7.7,9-14.5,13-20.5c4.1-6,7.7-11.3,10.2-16.3c0.6-2,0.7-4.4,0.7-6.5
		c-2.9-1.3-5.6-2.3-6.9-2.3h-37.7c-17.8,0-43.9,1.6-44.2,1.6l-1.8-30c1.1-0.1,27.3-1.7,46-1.7h37.7c11.6,0,24.8,7.6,28.6,10l5.3,3.3
		l1.4,6.1c0.4,1.6,3.6,16.1-1.1,30l-0.3,0.8l-0.4,0.8c-3.5,7.4-8.1,14.1-13,21.2c-3.9,5.7-7.9,11.6-11.6,18.1
		c-3.6,6.5-6.4,12.5-9.6,19.5c-3.8,8.3-8.1,17.7-14.7,29.5C308.9,208.1,296.2,240.8,292.8,252z"/>
	<path opacity="0.5" fill="#8ECF9B" enable-background="new    " d="M563.9,150.4c-2.6-2.4-5.7-4.8-9.4-7.2
		c16.5-12.1,22.6-30.7,22.6-41.6c0-2.6,0-10.4-15.7-37.4l-1.7-2.9l-2.8-1.9c-2-1.4-20.9-14-42.2-14c-24.2,0-39.2,9-47.5,16.6
		c-11,10-17.3,23.8-17.3,37.9c0,13.9,6.4,27.7,17.5,37.9c1.7,1.6,3.7,3.2,6,4.8c-5.9,3.8-10.3,8.2-13.5,12.2
		c-9.6,11.9-13,25.5-13,34.3c0,37.1,24.5,59.3,65.4,59.3c26,0,42.2-9.4,51.3-17.2c12.1-10.6,19-25.3,19-40.3
		C582.6,176,575.8,161.3,563.9,150.4z M514.7,75.5c8.4,0,17.6,4.3,22.6,7.1c4.5,8.1,8.6,16.5,9.7,19.9c-0.6,3.9-4.6,21.6-29.9,22.4
		c-0.6,0-1.3,0-1.9,0c-25.7,0-35.3-15.3-35.3-24.9C479.9,82,500.7,75.5,514.7,75.5z M512.4,218.4c-31.4,0-35.4-15.7-35.4-29.3
		c0-0.3,1.4-26,33.4-27c0.7,0,1.4,0,2.1,0c29.2,0,40.1,17.6,40.2,28.8C552.7,204.5,538.8,218.4,512.4,218.4z"/>
	<path opacity="0.5" fill="#8ECF9B" enable-background="new    " d="M557.8,141.4c-0.2-0.2-0.5-0.3-0.7-0.4c1-0.9,2-1.8,3-2.8
		c14.2-14.1,14-29.2,14-34.2v-0.5c0-6.4,0.2-19.7-7.5-32c-11.9-18.9-33.8-22.9-50.3-22.9c-19,0-35.1,4.2-46.7,12.1
		c-12.7,8.6-19.7,21.4-19.7,35.9c0,12.3,10.9,31.2,15.5,38.7l1.9,3.1l3.2,1.9c0.3,0.2,1.1,0.6,2.1,1.2c-4.8,4.1-8.4,8.5-11.2,12.7
		c-8.5,12.8-11.5,27.5-11.5,36.1c0,18.1,13.6,56.1,55.5,57.9c2.4,0.1,4.8,0.2,7.2,0.2c15.1,0,35.6-1.9,48.1-11.1
		c16.1-12,21.9-31.8,21.9-46.4C582.6,175.6,576.1,153.5,557.8,141.4z M516.1,78.6c13,0,21.3,2.9,25,8.8c3.1,4.9,2.9,11.9,2.9,16v0.5
		c0,3.7-0.2,8-5.1,12.9c-5.2,5.1-12.3,7.8-21.8,8.1c-0.2,0-0.4,0-0.6,0c-8.9,0-21.1-5.4-27.6-8.7c-4.5-8-8.6-16.8-9.1-19.8
		C480,85.6,494.2,78.6,516.1,78.6z M542.7,213.1c-3.4,2.5-14.2,5.2-30.1,5.2c-2,0-4,0-5.9-0.1c-25.2-1.1-26.8-27.7-26.8-28
		s1.4-31.9,32.2-32.8c0.5,0,1,0,1.5,0c9.6,0,18.6,2.9,27.4,8.8c7.9,5.3,11.5,16.5,11.5,24.6C552.5,198,549.5,208.1,542.7,213.1z"/>
	<path opacity="0.5" fill="#8ECF9B" enable-background="new    " d="M557.8,141.4c-0.2-0.2-0.5-0.3-0.7-0.4c1-0.9,2-1.8,3-2.8
		c14.2-14.1,14-29.2,14-34.2v-0.5c0-6.4,0.2-19.7-7.5-32c-11.9-18.9-33.8-22.9-50.3-22.9c-19,0-35.1,4.2-46.7,12.1
		c-12.7,8.6-19.7,21.4-19.7,35.9c0,12.3,10.9,31.2,15.5,38.7l1.9,3.1l3.2,1.9c0.3,0.2,1.1,0.6,2.1,1.2c-4.8,4.1-8.4,8.5-11.2,12.7
		c-8.5,12.8-11.5,27.5-11.5,36.1c0,18.1,13.6,56.1,55.5,57.9c2.4,0.1,4.8,0.2,7.2,0.2c15.1,0,35.6-1.9,48-11
		c18.5-13.8,18.5-36.8,18.5-45.5C579.1,182.8,579.1,155.6,557.8,141.4z M516.1,78.6c13,0,21.3,2.9,25,8.8c3.1,4.9,2.9,11.9,2.9,16
		v0.5c0,3.7-0.2,8-5.1,12.9c-5.2,5.1-12.3,7.8-21.8,8.1c-0.2,0-0.4,0-0.6,0c-8.9,0-21.1-5.4-27.6-8.7c-4.5-8-8.6-16.8-9.1-19.8
		C480,85.6,494.2,78.6,516.1,78.6z M542.7,213.1c-3.4,2.5-14.2,5.2-30.1,5.2c-2,0-4,0-5.9-0.1c-25.2-1.1-26.8-27.7-26.8-28
		s1.4-31.9,32.2-32.8c0.5,0,1,0,1.5,0c9.6,0,18.6,2.9,27.5,8.8c5.4,3.6,8,11.9,8,25.5C549.1,203.5,547.2,209.7,542.7,213.1z"/>
</g>
</svg>
