<?xml version="1.0" encoding="utf-8"?>
<!-- Generator: Adobe Illustrator 18.0.0, SVG Export Plug-In . SVG Version: 6.00 Build 0)  -->
<!DOCTYPE svg PUBLIC "-//W3C//DTD SVG 1.1//EN" "http://www.w3.org/Graphics/SVG/1.1/DTD/svg11.dtd">
<svg version="1.1" id="Ebene_1" xmlns="http://www.w3.org/2000/svg" xmlns:xlink="http://www.w3.org/1999/xlink" x="0px" y="0px"
	 viewBox="0 0 585 294" enable-background="new 0 0 585 294" xml:space="preserve">
<path opacity="0.5" fill="#8ECF9B" d="M120.8,247h-30c0-6,0.3-32.7,0.9-64.1c-15.6,0.3-31.3,0.7-43.8,0.7c-25.2,0-30.5-0.4-35.8-5.7
	c-11.4-11.6-3.6-36.3-3.5-36.5c1-3.1,2-6.1,35.2-49.6C59.5,71.3,75.1,51.2,75.3,51l3.3-4.2l5.3-1.2c1.6-0.4,15.9-3.3,29.6,0.1
	l12.1,3l-0.7,12.4c-0.9,15.3-1.8,53.5-2.6,91.5c11.8-0.2,21.8-0.3,28.3-0.1l-0.7,30c-6.2-0.2-16.3-0.3-28.1-0.1
	C121.1,213.9,120.8,241,120.8,247z M36.4,153.7c13.4,0.2,37-0.2,55.8-0.5c0.6-28.9,1.2-58,1.9-77.5c-25.9,33.3-52.7,68.7-57.3,76.2
	C36.6,152.4,36.5,153,36.4,153.7z"/>
<path opacity="0.5" fill="#8ECF9B" d="M120.8,247h-30c0-6,0.4-30.1,0.8-61c0-1.4,0-2.7,0.1-4.2c-4.5,0.2-9,0.3-13.4,0.5
	c-32.6,0.8-52.5,0.3-53.3,0.2l-1.9,0l-1.8-0.5c-5.3-1.6-12.1-6.1-15-14c-2.1-5.5-2.9-14.6,4.6-26.3c1.2-1.9,2.6-3.3,5.4-6
	c4.4-4.4,11.8-11.7,17.5-20.2c8-11.7,16.3-25.4,23.7-37.5c14.4-23.6,17.1-27.7,21.9-30.6c10.2-6.1,20.1-3.4,28.7-1.1
	c1.7,0.5,3.4,0.9,5.2,1.4l12.1,3l-0.7,12.4c-0.2,3.8-0.6,6.7-0.9,9.5c-0.7,5.3-1.4,11.2-1.7,26.9c0,1.7,0.2,4.8,0.3,7.6
	c0.2,3.4,0.4,6.9,0.4,9.8c-0.2,11.1-0.3,22.5-0.5,33.8c9.2-0.1,15.4,0.6,20.6,1.2c3,0.3,5.3,0.6,7.8,0.6l-0.7,30
	c-3.7-0.1-6.9-0.4-10.3-0.8c-4.7-0.5-9.9-1.1-17.8-1c0,2-0.1,3.7-0.1,5.7C121.2,216,120.8,242,120.8,247z M41.4,152.7
	c8.8,0,21.1,0,36.1-0.4c4.8-0.1,9.7-0.3,14.6-0.4c0.2-11.8,0.3-23.8,0.5-35.4c0-1.8-0.2-4.7-0.3-7.6c-0.2-3.7-0.4-7.1-0.4-10
	c0.2-10,0.6-16.5,1-21.4c-2.9,4.6-6.6,10.7-9.9,16.1c-7.2,11.8-16.1,26.5-24.6,38.8C52.9,140.5,46.4,147.7,41.4,152.7z"/>
<path opacity="0.5" fill="#8ECF9B" d="M121.2,255.8L94.1,243c-0.4,0.8-0.5,1.4-0.5,1.4c0.8-3.9-0.4-19.3-1.4-33
	c-0.7-8.6-1.4-18.1-2-28.3c-39.9,1.8-61.8,2.6-62,2.6l-6.6,0.2l-4.6-4.7c-1.4-1.4-2.7-2.6-3.9-3.8c-4.3-4.1-9.2-8.7-10.4-16.2
	c-1.3-8.4,2.7-15.4,7.4-21.6c1-1.3,4-5.5,7.7-10.8c51.7-72.4,56.9-77.5,61.6-80.4c10.2-6.1,19.8-2.4,26.2,0.1
	c2.4,0.9,4.8,1.9,7.5,2.5l12.1,3l-0.7,12.4c-0.3,4.4-0.7,6.5-1.1,8.7c-0.4,1.8-0.9,4.2-1.2,18.6c-0.1,2.5-0.6,9.5-1.6,20.7
	c-0.6,7.5-1.6,18.9-1.6,21c-0.1,5.5-0.1,11,0,16.4c11-0.3,18,0.5,23.7,1.1c3,0.3,5.3,0.6,7.8,0.6l-0.7,30c-3.7-0.1-6.9-0.4-10.3-0.8
	c-5-0.5-10.5-1.1-19.3-1c0.6,9.8,1.3,19,1.9,27.4C124.3,237.9,124.9,248.2,121.2,255.8z M92.8,77.1c-11.4,14.1-40.2,54.5-50.6,69
	c-2.9,4.1-5.2,7.2-6.6,9.3c9.8-0.4,27.8-1.1,53.4-2.3c-0.1-5.9-0.1-12-0.1-18.2c0-2.7,0.6-9.4,1.7-23.1c0.6-7.2,1.4-17,1.5-18.8
	C92.3,85.5,92.5,80.6,92.8,77.1z"/>
<path opacity="0.5" fill="#8ECF9B" d="M160.4,288.3c0,0,7.1-29.9,18.1-75.9s18.7-72.1,28.3-118.8c9.6-46.8,20.7-86.9,20.7-86.9"/>
<path opacity="0.5" fill="#8ECF9B" d="M175,291.8l-29.2-7l18.1-75.9c3.9-16.3,7.3-29.9,10.6-43c6.1-24.3,11.4-45.3,17.6-75.3
	c9.6-46.8,20.9-87.5,21-87.9l28.9,8c-0.1,0.4-11.1,40.2-20.5,85.9c-6.3,30.6-11.9,52.9-17.9,76.6c-3.3,13.1-6.7,26.6-10.5,42.6
	L175,291.8z"/>
<path opacity="0.5" fill="#8ECF9B" d="M160.4,288.3c0,0,9.1-29.9,20.1-75.9c5.8-24.4,10-31.7,12.8-62.5c5.5-30.3,6-34.4,10.5-56.3
	c9.6-46.8,23.7-86.9,23.7-86.9"/>
<path opacity="0.5" fill="#8ECF9B" d="M174.7,292.7l-28.7-8.8c0.1-0.3,9.1-30,19.9-75c1.7-7.1,3.2-12.8,4.6-17.8
	c3.4-12.6,5.9-21.6,7.8-42.5l0.1-0.7l0.1-0.6c1.2-6.4,2.1-11.6,2.9-16.1c3-16.8,4.1-23.1,7.7-40.6c9.7-47.3,23.7-87.2,24.3-88.9
	l28.3,9.9c-0.1,0.4-13.9,39.8-23.2,85c-3.5,17.1-4.6,23.3-7.6,39.8c-0.8,4.3-1.7,9.4-2.8,15.5c-2.1,23.1-5,33.7-8.7,47
	c-1.4,5.1-2.8,10.3-4.4,16.9C184.1,261.9,175.1,291.5,174.7,292.7z"/>
<path opacity="0.5" fill="#8ECF9B" d="M227.5,5.7c0,0-9.1,29.9-20.1,75.9c-5.8,24.4-10,31.7-12.8,62.5c-5.5,30.3-6,34.4-10.5,56.3
	c-9.6,46.8-23.7,86.9-23.7,86.9"/>
<path opacity="0.5" fill="#8ECF9B" d="M174.5,292.3l-28.3-9.9c0.1-0.4,13.9-39.8,23.2-85c3.5-17.1,4.6-23.3,7.6-39.8
	c0.8-4.3,1.7-9.4,2.8-15.5c2.1-23.1,5-33.7,8.7-47c1.4-5.1,2.8-10.3,4.4-16.9c11-46,20-75.6,20.4-76.8l28.7,8.8
	c-0.1,0.3-9.1,30-19.9,75c-1.7,7.1-3.2,12.8-4.6,17.8c-3.4,12.6-5.9,21.6-7.8,42.5l-0.1,0.7l-0.1,0.6c-1.2,6.4-2.1,11.6-2.9,16.1
	c-3,16.8-4.1,23.1-7.7,40.5C189.1,250.7,175.1,290.6,174.5,292.3z"/>
<path opacity="0.5" fill="#8ECF9B" d="M367.4,288.3c0,0,7.1-29.9,18.1-75.9s18.7-72.1,28.3-118.8c9.6-46.8,20.7-86.9,20.7-86.9"/>
<path opacity="0.5" fill="#8ECF9B" d="M382,291.8l-29.2-7l18.1-75.9c3.9-16.3,7.3-29.9,10.6-43c6.1-24.3,11.4-45.3,17.6-75.3
	c9.6-46.8,20.9-87.5,21-87.9l28.9,8c-0.1,0.4-11.1,40.2-20.5,85.9c-6.3,30.6-11.9,52.9-17.9,76.6c-3.3,13.1-6.7,26.6-10.5,42.6
	L382,291.8z"/>
<path opacity="0.5" fill="#8ECF9B" d="M367.4,288.3c0,0,9.1-29.9,20.1-75.9c5.8-24.4,10-31.7,12.8-62.5c5.5-30.3,6-34.4,10.5-56.3
	c9.6-46.8,23.7-86.9,23.7-86.9"/>
<path opacity="0.5" fill="#8ECF9B" d="M381.7,292.7l-28.7-8.8c0.1-0.3,9.1-30,19.9-75c1.7-7.1,3.2-12.8,4.6-17.8
	c3.4-12.6,5.9-21.6,7.8-42.5l0.1-0.7l0.1-0.6c1.2-6.4,2.1-11.6,2.9-16.1c3-16.8,4.1-23.1,7.7-40.6c9.7-47.3,23.7-87.2,24.3-88.9
	l28.3,9.9c-0.1,0.4-13.9,39.8-23.2,85c-3.5,17.1-4.6,23.3-7.6,39.8c-0.8,4.3-1.7,9.4-2.8,15.5c-2.1,23.1-5,33.7-8.7,47
	c-1.4,5.1-2.8,10.3-4.4,16.9C391.1,261.9,382.1,291.5,381.7,292.7z"/>
<path opacity="0.5" fill="#8ECF9B" d="M434.5,5.7c0,0-6.7,30.5-20.1,75.9c-6.5,21.9-4,28.4-12.8,62.5c-5.5,30.3-5.1,34.6-10.5,56.3
	c-14.2,56.5-19.3,53.7-23.7,86.9"/>
<path opacity="0.5" fill="#8ECF9B" d="M382.2,289.3l-29.7-4c2.6-19.2,5.5-27.9,9.7-39.9c3.5-10.3,7.9-23,14.4-48.7
	c3.4-13.4,4.4-19.6,6.2-30.8c1-6.1,2.2-13.7,4.2-24.5l0.2-1.1c4.4-16.9,5.8-26.6,7.1-35.2c1.2-8.3,2.4-16.2,5.8-27.7
	C413.1,33,419.8,2.8,419.9,2.5l29.3,6.4c-0.3,1.3-7,31.5-20.4,77c-2.8,9.5-3.7,15.8-4.9,23.7c-1.3,8.8-2.9,19.7-7.6,37.8
	c-1.8,10.2-3,17.5-4,23.4c-1.8,11.2-3,18.6-6.7,33.3c-6.7,27-11.6,41-15.1,51.2C386.6,266.7,384.4,273,382.2,289.3z"/>
<path opacity="0.5" fill="#8ECF9B" d="M292.2,254.5l-27.5-11.9c0.8-1.8,19.5-44.9,31.4-66.2c10.9-19.6,23.7-50,23.8-50.3l0.4-0.9
	l0.5-0.9c0.1-0.2,14.1-24,19.7-35.4c0.9-2.7,2.1-5.9,3.3-9.2c-10.7-0.2-32.9-0.7-46.4-0.7c-17.5,0-43.4,2.5-43.6,2.5L251,51.6
	c1.1-0.1,27.5-2.7,46.5-2.7c17.3,0,47.8,0.7,52.7,0.9l38.4-2.1L380,69.4c-0.1,0.2-8,20.3-11.3,30l-0.3,0.8L368,101
	c-5.3,11.2-18,33-20.8,37.7c-2.3,5.5-14.1,33.1-24.9,52.3C311.1,211,292.4,254.1,292.2,254.5z"/>
<path opacity="0.5" fill="#8ECF9B" d="M292.8,252l-28.7-8.7c4.5-14.9,21.5-49,32-67.9c5.6-10,8.7-18.6,11.7-27
	c2.8-7.7,5.7-15.7,10.2-23.9c4.3-7.7,8.9-14.5,13-20.5c4.2-6.1,7.8-11.3,10.3-16.3c1.2-3.4,2.7-7.8,4.2-11.8c0,0,0,0,0,0
	c-4.1,0-10.1,0.9-16.5,2.1c-9.4,1.7-20.1,3.5-31.6,3.5c-18.5,0-44.5-0.9-45.6-0.9l1-30c0.3,0,26.6,0.9,44.6,0.9
	c8.9,0,17.8-1.6,26.4-3.1c7.7-1.4,15-2.7,21.7-2.7c9.9,0,22.7,3.3,24.1,3.6l16.1,4.2l-5.8,15.6c-0.1,0.2-7.2,19.3-10.6,29.1
	l-0.3,0.8l-0.4,0.8c-3.5,7.4-8.1,14.1-13,21.3c-3.9,5.7-7.9,11.6-11.6,18.1c-3.3,6-5.6,12.2-8.2,19.4c-3.3,9.1-7,19.4-13.7,31.5
	C310,212.2,295.9,241.7,292.8,252z"/>
<path opacity="0.5" fill="#8ECF9B" d="M292.8,252.1l-28.7-8.7c3.9-13,17.2-47.4,29.7-69.8c6-10.8,9.9-19.2,13.6-27.4
	c3.3-7.2,6.4-14.1,10.7-21.6c4.3-7.7,9-14.5,13-20.5c4.1-6,7.7-11.3,10.2-16.3c0.6-2,0.7-4.4,0.7-6.5c-2.9-1.3-5.6-2.3-6.9-2.3
	h-37.7c-17.8,0-43.9,1.6-44.2,1.6l-1.8-30c1.1-0.1,27.3-1.7,46-1.7h37.7c11.6,0,24.8,7.6,28.6,10l5.3,3.3l1.4,6.1
	c0.4,1.6,3.6,16.1-1.1,30l-0.3,0.8l-0.4,0.8c-3.5,7.4-8.1,14.1-13,21.2c-3.9,5.7-7.9,11.6-11.6,18.1c-3.6,6.5-6.4,12.5-9.6,19.5
	c-3.8,8.3-8.1,17.7-14.7,29.5C308.9,208.2,296.2,240.9,292.8,252.1z"/>
<path opacity="0.5" fill="#8ECF9B" d="M515.2,154.9c-24.1,0-39.3-9.2-47.8-17c-11.1-10.2-17.5-24-17.5-37.9
	c0-14.1,6.3-27.9,17.3-37.9c8.3-7.6,23.3-16.6,47.5-16.6c21.3,0,40.2,12.6,42.2,14l2.8,1.9l1.7,2.9c15.7,27,15.7,34.8,15.7,37.4
	c0,16.8-14.4,51.8-59.1,53.2C517.1,154.9,516.1,154.9,515.2,154.9z M514.7,75.5c-14,0-34.8,6.5-34.8,24.5c0,9.6,9.6,24.9,35.3,24.9
	c0.6,0,1.3,0,1.9,0c25.3-0.8,29.3-18.5,29.9-22.4c-1.1-3.4-5.2-11.8-9.7-19.9C532.3,79.8,523.1,75.5,514.7,75.5z"/>
<path opacity="0.5" fill="#8ECF9B" d="M512.3,248.5c-40.9,0-65.4-22.2-65.4-59.3c0-8.8,3.4-22.4,13-34.3c8-9.9,23.1-21.9,49.6-22.7
	c1,0,2,0,3,0c26,0,42.3,9.9,51.4,18.3c11.9,10.9,18.7,25.6,18.7,40.5c0,15-6.9,29.7-19,40.3C554.5,239.1,538.3,248.5,512.3,248.5z
	 M512.5,162.2c-0.7,0-1.4,0-2.1,0c-32,1-33.4,26.7-33.4,27c0,13.6,4,29.3,35.4,29.3c26.4,0,40.3-13.9,40.3-27.5
	C552.6,179.8,541.7,162.2,512.5,162.2z"/>
<path opacity="0.5" fill="#8ECF9B" d="M516.5,154.9c-20.8,0-43.5-13.1-46-14.6l-3.2-1.9l-1.9-3.1c-4.6-7.5-15.5-26.4-15.5-38.7
	c0-14.5,7-27.3,19.7-35.9c11.6-7.9,27.7-12.1,46.7-12.1c16.5,0,38.4,4,50.3,22.9c7.7,12.3,7.5,25.6,7.5,32v0.5c0,5,0.2,20.1-14,34.2
	c-10.5,10.5-25,16.3-42.1,16.8C517.4,154.9,517,154.9,516.5,154.9z M488.9,116.2c6.5,3.3,18.7,8.7,27.6,8.7c0.2,0,0.4,0,0.6,0
	c9.5-0.3,16.6-3,21.8-8.1c4.9-4.9,5.1-9.2,5.1-12.9v-0.5c0-4.1,0.2-11.1-2.9-16c-3.7-5.9-12-8.8-25-8.8c-21.9,0-36.1,7-36.3,17.8
	C480.3,99.4,484.4,108.2,488.9,116.2z"/>
<path opacity="0.5" fill="#8ECF9B" d="M512.6,248.4c-2.4,0-4.8-0.1-7.2-0.2c-41.9-1.8-55.5-39.8-55.5-57.9c0-8.6,3-23.3,11.5-36.1
	c7.8-11.8,22.8-25.9,49.8-26.7c0.8,0,1.6,0,2.4,0c15.5,0,30.4,4.7,44.2,13.9c18.3,12.2,24.8,34.3,24.8,49.5
	c0,14.6-5.8,34.4-21.9,46.4C548.2,246.5,527.7,248.4,512.6,248.4z M513.6,157.5c-0.5,0-1,0-1.5,0c-30.8,0.9-32.2,32.5-32.2,32.8
	c0,0.3,1.6,26.9,26.8,28c1.9,0.1,3.9,0.1,5.9,0.1c15.9,0,26.7-2.7,30.1-5.2c6.8-5,9.8-15.1,9.8-22.3c0-8.1-3.6-19.3-11.5-24.6
	C532.2,160.4,523.2,157.5,513.6,157.5z"/>
<path opacity="0.5" fill="#8ECF9B" d="M516.5,154.9c-20.8,0-43.5-13.1-46-14.6l-3.2-1.9l-1.9-3.1c-4.6-7.5-15.5-26.4-15.5-38.7
	c0-14.5,7-27.3,19.7-35.9c11.6-7.9,27.7-12.1,46.7-12.1c16.5,0,38.4,4,50.3,22.9c7.7,12.3,7.5,25.6,7.5,32v0.5c0,5,0.2,20.1-14,34.2
	c-10.5,10.5-25,16.3-42.1,16.8C517.4,154.9,517,154.9,516.5,154.9z M488.9,116.2c6.5,3.3,18.7,8.7,27.6,8.7c0.2,0,0.4,0,0.6,0
	c9.5-0.3,16.6-3,21.8-8.1c4.9-4.9,5.1-9.2,5.1-12.9v-0.5c0-4.1,0.2-11.1-2.9-16c-3.7-5.9-12-8.8-25-8.8c-21.9,0-36.1,7-36.3,17.8
	C480.3,99.4,484.4,108.2,488.9,116.2z"/>
<path opacity="0.5" fill="#8ECF9B" d="M512.6,248.4c-2.4,0-4.8-0.1-7.2-0.2c-41.9-1.8-55.5-39.8-55.5-57.9c0-8.6,3-23.3,11.5-36.1
	c7.8-11.8,22.8-25.9,49.8-26.7c0.8,0,1.6,0,2.4,0c15.5,0,30.4,4.7,44.2,13.9c21.3,14.3,21.3,41.5,21.3,50.5c0,8.7,0,31.7-18.5,45.5
	C548.2,246.5,527.7,248.4,512.6,248.4z M513.6,157.5c-0.5,0-1,0-1.5,0c-30.8,0.9-32.2,32.5-32.2,32.8c0,0.3,1.6,26.9,26.8,28
	c1.9,0.1,3.9,0.1,5.9,0.1c15.9,0,26.7-2.7,30.1-5.2c4.5-3.4,6.4-9.6,6.4-21.4c0-13.6-2.6-21.9-8-25.5
	C532.2,160.4,523.2,157.5,513.6,157.5z"/>
</svg>
