<?xml version="1.0" encoding="utf-8"?>
<!-- Generator: Adobe Illustrator 18.0.0, SVG Export Plug-In . SVG Version: 6.00 Build 0)  -->
<!DOCTYPE svg PUBLIC "-//W3C//DTD SVG 1.1//EN" "http://www.w3.org/Graphics/SVG/1.1/DTD/svg11.dtd">
<svg version="1.1" id="Ebene_1" xmlns="http://www.w3.org/2000/svg" xmlns:xlink="http://www.w3.org/1999/xlink" x="0px" y="0px"
	 viewBox="0 0 88.9 19.5" enable-background="new 0 0 88.9 19.5" xml:space="preserve">
<g>
	<g>
		<path fill="#FFFFFF" d="M31.8,15.2L31.8,15.2L29.3,4.9h-2.9l-2.5,10.2h0L21.5,4.9h-3.1l3.9,14.3h2.9l2.6-9.8h0.1l2.6,9.8h2.9
			l3.9-14.3h-3.1L31.8,15.2z M68.7,4.7c-3.7,0-5.9,2.4-5.9,6.5V13c0,4.1,2.2,6.5,5.9,6.5c3.7,0,5.5-2.3,5.5-4.9v-0.3h-2.8
			c0,1.5-0.7,2.6-2.7,2.6c-2,0-3-1.3-3-4v-1.7c0-2.7,1-4,3-4c1.9,0,2.7,1.3,2.7,2.7h2.8V9.7C74.3,6.9,72.2,4.7,68.7,4.7z M41.9,4.9
			l-4.5,14.3h2.9l1-3.6h4.4l1,3.6h3.1L45.3,4.9H41.9z M41.9,13.4l1.6-5.7h0l1.6,5.7H41.9z M86,4.9v5.7h-5.7V4.9h-2.9v14.3h2.9v-6.1
			H86v6.1h2.9V4.9H86z M49.8,7.4h4.2v11.8h2.9V7.4H61V4.9H49.8V7.4z M13,10.4c0-2.5,2-3.7,2.1-3.7c-1.1-1.7-2.9-1.9-3.5-1.9
			C10,4.6,8.6,5.6,7.9,5.6C7.1,5.6,6,4.7,4.7,4.8c-1.6,0-3.1,1-3.9,2.4c-1.7,3-0.4,7.4,1.2,9.8c0.8,1.2,1.8,2.5,3,2.5
			c1.2,0,1.7-0.8,3.1-0.8c1.5,0,1.9,0.8,3.1,0.8c1.3,0,2.1-1.2,2.9-2.4c0.9-1.4,1.3-2.7,1.3-2.8C15.5,14.3,13,13.3,13,10.4z
			 M10.6,3.1c0.7-0.8,1.1-2,1-3.1c-1,0-2.1,0.7-2.8,1.5c-0.6,0.7-1.2,1.9-1,3C8.8,4.6,9.9,3.9,10.6,3.1z"/>
	</g>
</g>
</svg>
