<?xml version="1.0" encoding="utf-8"?>
<!-- Generator: Adobe Illustrator 18.0.0, SVG Export Plug-In . SVG Version: 6.00 Build 0)  -->
<!DOCTYPE svg PUBLIC "-//W3C//DTD SVG 1.1//EN" "http://www.w3.org/Graphics/SVG/1.1/DTD/svg11.dtd">
<svg version="1.1" id="Ebene_1" xmlns="http://www.w3.org/2000/svg" xmlns:xlink="http://www.w3.org/1999/xlink" x="0px" y="0px"
	 viewBox="0 0 100 100" enable-background="new 0 0 100 100" xml:space="preserve">
<g>
	<g>
		<circle fill="#8ECF9B" cx="50" cy="50" r="50"/>
	</g>
	<g>
		<g>
			<path fill="#FFFFFF" d="M99.8,45.9c-11.7,0.8-21.3,5.9-25.6,8l-3.4-10.2c-0.2-0.7-0.8-1.1-1.5-1.1c-0.7,0-1.3,0.4-1.6,1
				c-0.1,0.2-5.9,14.9-9.1,32.6c-1.1-4.7-2.7-10.3-4.3-16.2c-1.1-4-2.3-8.3-3.5-12.7c5.8-17.3,7.5-28.8,5-34.3
				c-1.2-2.6-3.2-3.9-6-3.9c-2.2,0-3.9,0.9-5.2,2.5c-4.2,5.5-1.5,19.8,2.7,35.6c0,0.1-0.1,0.3-0.1,0.4c-3.6,10.6-7.8,20.1-10,24.6
				c-1.3-3.7-2.7-10.6-3.8-23.5C32.3,38.2,32,28.5,32,28.4c0-0.8-0.7-1.5-1.5-1.6c-0.8-0.1-1.6,0.5-1.8,1.3L21.9,57l-4.1-10.7
				c-0.3-0.7-0.9-1.1-1.6-1.1c-0.7,0-1.3,0.5-1.6,1.2l-2.1,6.3c-2.4-0.1-7.7-0.1-12.5,1.6c0.1,1.2,0.2,2.3,0.4,3.4
				c5.7-2.4,13-1.6,13.1-1.6c0.8,0.1,1.5-0.4,1.8-1.1l1-3.1l4.3,11.4c0.3,0.7,0.9,1.1,1.7,1.1c0.7,0,1.4-0.6,1.5-1.3l5.3-22.6
				c0.2,2.6,0.4,5.5,0.6,8.5c1.3,14.5,3.2,23.9,5.6,27.8c0.3,0.4,0.8,0.7,1.3,0.8c0.5,0,1-0.2,1.4-0.6c1.3-1.5,6.2-12.1,10.6-24.1
				c0.7,2.7,1.5,5.3,2.2,8c3.1,11.2,6.1,21.9,6,26.6c0,0.9,0.7,1.7,1.6,1.7c0,0,0.1,0,0.1,0c0.9,0,1.6-0.7,1.7-1.5
				c1.5-15.8,6.3-31.1,8.8-38.4l2.5,7.5c0.2,0.5,0.5,0.8,1,1c0.5,0.2,1,0.2,1.4-0.1c0.1-0.1,12.1-7.4,26-8.5
				C100,48.1,99.9,47,99.8,45.9z M47.2,13.5c0.6-0.8,1.4-1.1,2.5-1.1c1.4,0,2.3,0.6,2.9,1.9c1.9,4,0.6,13.6-3.5,26.8
				C46.2,28.8,44.3,17.3,47.2,13.5z"/>
		</g>
	</g>
</g>
</svg>
