<?xml version="1.0" encoding="utf-8"?>
<!-- Generator: Adobe Illustrator 18.0.0, SVG Export Plug-In . SVG Version: 6.00 Build 0)  -->
<!DOCTYPE svg PUBLIC "-//W3C//DTD SVG 1.1//EN" "http://www.w3.org/Graphics/SVG/1.1/DTD/svg11.dtd">
<svg version="1.1" id="Ebene_1" xmlns="http://www.w3.org/2000/svg" xmlns:xlink="http://www.w3.org/1999/xlink" x="0px" y="0px"
	 viewBox="0 0 900 900" enable-background="new 0 0 900 900" xml:space="preserve">
<path fill="#FFFFFF" d="M740.8,6.9H154.6C71.5,6.9,6.9,71.5,6.9,154.6v590.8c0,83.1,64.6,147.7,147.7,147.7H450V505.4H339.2V394.6
	H450v-83.1C450,233,510,173,588.5,173H727v110.8H588.5c-13.8,0-27.7,13.8-27.7,27.7v83.1h152.3l-27.7,110.8H560.8v387.7h184.6
	c83.1,0,147.7-64.6,147.7-147.7V154.6C888.5,71.5,823.9,6.9,740.8,6.9L740.8,6.9z"/>
</svg>
