<?xml version="1.0" encoding="utf-8"?>
<!-- Generator: Adobe Illustrator 18.0.0, SVG Export Plug-In . SVG Version: 6.00 Build 0)  -->
<!DOCTYPE svg PUBLIC "-//W3C//DTD SVG 1.1//EN" "http://www.w3.org/Graphics/SVG/1.1/DTD/svg11.dtd">
<svg version="1.1" id="Ebene_2" xmlns="http://www.w3.org/2000/svg" xmlns:xlink="http://www.w3.org/1999/xlink" x="0px" y="0px"
	 viewBox="0 0 750 840" enable-background="new 0 0 750 840" xml:space="preserve">
<path fill="#DDF1E1" d="M136.5,742.3c-45.4,0-92.5-8.3-136.5-23.6C0,653,0,388.4,0,350c70.3,4.2,164.4,7.7,220.9,4.9
	C304,350.7,378.1,327,461,327.5c92.9,0.6,183.1,7.6,275.5,8.1c4.8,0,9.2,0.1,13.4,0.2c0,29.2,0,367.2,0,384.2
	c-98.5,27.1-211.5-36.4-307.4,0.1c-51.4,19.6-138.8,19.7-191.2,6.6C213.6,729.5,174.9,742.3,136.5,742.3
	C113.8,742.3,162.1,742.3,136.5,742.3L136.5,742.3z"/>
<path opacity="0.5" fill-rule="evenodd" clip-rule="evenodd" fill="#FF9501" d="M644.5,154c15.7,0,28.5,12.8,28.5,28.5
	c0,15.7-12.8,28.5-28.5,28.5c-15.7,0-28.5-12.8-28.5-28.5C616,166.7,628.8,154,644.5,154L644.5,154z"/>
<path fill="#B5E0BE" d="M204,565c-0.8,0-1.5-0.2-2.2-0.6l-38.8-25l-37.1,14.4c-1.2,0.4-2.4,0.3-3.5-0.3l-41.5-25
	c-1.9-1.1-2.5-3.6-1.4-5.5c1.1-1.9,3.6-2.5,5.5-1.4l39.8,24l37.2-14.4c1.2-0.5,2.5-0.3,3.6,0.4l38.5,24.8l37.9-19.9
	c0.8-0.4,1.7-0.5,2.5-0.4l40,6.9l38.5-3.9c0.5,0,0.9,0,1.4,0.1l38.9,9.6l38.6-24.1c1.3-0.8,3-0.8,4.3,0l37.9,24.3l38.7-36.1
	c0.9-0.9,2.2-1.2,3.5-1l36.5,7l39.6-11.7c1.2-0.4,2.5-0.1,3.5,0.6l38.6,28.3l37.1-27.3c1.2-0.9,2.9-1,4.2-0.3l39.9,21.2l39.3-13.9
	c1.4-0.5,3-0.2,4.1,0.9l20.7,19.7l0,11L725.5,524l-38.7,13.7c-1.1,0.4-2.2,0.3-3.2-0.2l-39.3-20.8l-37.5,27.5c-1.4,1-3.3,1-4.7,0
	l-39.4-28.8l-38.6,11.4c-0.6,0.2-1.3,0.2-1.9,0.1l-35.5-6.8l-39.5,36.8c-1.3,1.2-3.3,1.4-4.9,0.4L404,532.7l-37.9,23.7
	c-0.9,0.6-2,0.8-3.1,0.5l-39.8-9.8l-38.3,3.9c-0.4,0-0.7,0-1.1,0l-39.2-6.8l-38.8,20.4C205.3,564.8,204.6,565,204,565z"/>
<path fill="#8ECF9B" d="M643.2,178.8l-38.5,8.3l-40-12.2c-1-0.3-2.1-0.2-3,0.3l-38.8,19.6l-35.8-15.7c-1-0.5-2.2-0.5-3.3,0
	c-1,0.5-1.8,1.4-2.2,2.5l-38.4,126.5l-35.8-58c-0.9-1.4-2.5-2.1-4.1-1.8c-1.6,0.3-2.9,1.5-3.2,3.2l-39.5,198.2l-37,11.5l-37.8-12.2
	c-1-0.3-2.1-0.2-3.1,0.3c-0.9,0.5-1.7,1.3-2,2.4l-39.2,127.2l-36-14.2c-0.7-0.3-1.4-0.3-2.1-0.2l-39.4,5.8l-37.9-16.5
	c-1.4-0.6-3-0.4-4.1,0.6l-41.5,34c-1.7,1.4-2,3.9-0.6,5.6c0.8,1,1.9,1.5,3.1,1.5c0.9,0,1.8-0.3,2.5-0.9l39.6-32.5l36.8,16
	c0.7,0.3,1.4,0.4,2.2,0.3l39.4-5.8l39,15.4c1,0.4,2.2,0.4,3.2-0.1c1-0.5,1.8-1.4,2.1-2.4l39.3-127.4l35.1,11.3
	c0.8,0.3,1.6,0.3,2.4,0l40.5-12.6c1.4-0.4,2.5-1.6,2.7-3l38-190.5l35.2,56.9c0.8,1.3,2.4,2.1,3.9,1.9c1.6-0.2,2.9-1.3,3.3-2.8
	L488,188.2l33.4,14.7c1.1,0.5,2.3,0.4,3.4-0.1l39.1-19.8l39.5,12c0.6,0.2,1.3,0.2,2,0.1l39.5-8.5l0.2-7.8
	C644.4,178.7,643.8,178.7,643.2,178.8z"/>
<g opacity="0.1">
	<rect x="83" y="49" width="667.1" height="2"/>
	<rect x="83" y="116.9" width="667.1" height="2"/>
	<rect x="83" y="184.8" width="667.1" height="2"/>
	<rect x="83" y="252.7" width="667.1" height="2"/>
	<rect x="83" y="320.6" width="667.1" height="2"/>
	<rect x="83" y="388.5" width="667.1" height="2"/>
	<rect x="83" y="456.4" width="667.1" height="2"/>
	<rect x="83" y="524.3" width="667.1" height="2"/>
	<rect x="83" y="592.2" width="667.1" height="2"/>
	<rect x="83" y="660.1" width="667.1" height="2"/>
	<rect x="83" y="728.1" width="667.1" height="2"/>
	<rect x="83" y="796" width="667.1" height="2"/>
</g>
<path opacity="0.1" d="M36.5,794.9v0.2c1.5,0.1,3.5,1.3,3.6,4c0,3.3-3,5-6.4,5c-3.9,0-6-2.2-6.1-4.8h3.2c0.1,1.1,1.3,2,2.9,2
	c1.8,0,2.9-1,2.9-2.3c0-1.3-1.1-2.3-2.8-2.3h-1.9v-2.8h1.8c1.5,0,2.5-0.9,2.5-2.1c0-1.2-1.1-2.1-2.5-2.1c-1.5,0-2.5,1-2.5,2h-3.3
	c0.1-2.8,2.2-4.8,5.9-4.8c3.5,0,5.7,1.8,5.8,4.4C39.6,793.5,37.7,794.7,36.5,794.9L36.5,794.9z M48.7,804c-4.1,0-6.4-3.4-6.4-8.3
	V795c0-4.9,2.4-8.2,6.5-8.2c4.1,0,6.4,3.3,6.4,8.2v0.8C55.1,800.4,52.9,804,48.7,804L48.7,804z M51.6,795c0-3.5-1.2-5.3-2.9-5.3
	c-1.7,0-2.9,1.8-2.9,5.3v0.8c0,3.5,1.2,5.3,2.9,5.3c1.7,0,2.9-1.8,2.9-5.3V795L51.6,795z"/>
<path opacity="0.1" d="M38.7,732.8v3h-3.3v-3h-8.1v-3c1.9-3.6,4.2-7.2,6.3-10.7h5.1v10.8h2v2.9H38.7L38.7,732.8z M35.4,721.8h-0.2
	c-1.6,2.6-3.3,5.2-4.7,8v0.1h4.9V721.8L35.4,721.8z M48.9,736c-4.1,0-6.4-3.4-6.4-8.3V727c0-4.9,2.4-8.2,6.5-8.2
	c4.1,0,6.4,3.3,6.4,8.2v0.8C55.4,732.4,53.2,736,48.9,736L48.9,736z M51.8,727c0-3.5-1.2-5.3-2.9-5.3c-1.7,0-2.9,1.8-2.9,5.3v0.8
	c0,3.5,1.2,5.3,2.9,5.3c1.7,0,2.9-1.8,2.9-5.3V727L51.8,727z"/>
<path opacity="0.1" d="M31.5,658.1h0.2c0.3-0.5,1.5-1.4,3.4-1.4c2.9,0,5.3,1.9,5.3,5.4c0,3.6-2.6,6-6.4,6c-3.6,0-5.9-2.1-6-4.7h3.2
	c0.2,1.2,1.5,1.9,2.8,1.9c1.5,0,2.9-1.1,2.9-3c0-1.7-1.3-2.8-2.9-2.8c-1.4,0-2.3,0.8-2.6,1.4h-3.1L29,651h10.4v2.9h-7.6L31.5,658.1
	L31.5,658.1z M48.8,668c-4.1,0-6.4-3.4-6.4-8.3V659c0-4.9,2.4-8.2,6.5-8.2c4.1,0,6.4,3.3,6.4,8.2v0.8C55.3,664.4,53.1,668,48.8,668
	L48.8,668z M51.7,659c0-3.5-1.2-5.3-2.9-5.3c-1.7,0-2.9,1.8-2.9,5.3v0.8c0,3.5,1.2,5.3,2.9,5.3c1.7,0,2.9-1.8,2.9-5.3V659L51.7,659z
	"/>
<path opacity="0.1" d="M34.5,586.6c-2.2,0-3.4,2.4-3.3,5.4h0.2c0.5-1.1,1.8-2.3,4-2.3c2.6,0,5.2,1.8,5.2,5.3c0,3.7-2.6,5.9-6.2,5.9
	c-2.2,0-4.1-0.8-5.3-2.8c-0.8-1.3-1.3-3.1-1.3-5.5c0-6,2.6-9,6.8-9c3.7,0,5.6,2.3,5.7,4.3h-3.3C36.6,587.3,35.9,586.6,34.5,586.6
	L34.5,586.6z M34.3,598.2c1.6,0,2.8-1,2.8-2.9c0-1.8-1.3-2.8-2.8-2.8c-1.7,0-2.8,1.2-2.8,2.8C31.5,597.1,32.8,598.2,34.3,598.2
	L34.3,598.2z M48.9,601c-4.1,0-6.4-3.4-6.4-8.3V592c0-4.9,2.4-8.2,6.5-8.2c4.1,0,6.4,3.3,6.4,8.2v0.8C55.3,597.4,53.1,601,48.9,601
	L48.9,601z M51.8,592c0-3.5-1.2-5.3-2.9-5.3c-1.7,0-2.9,1.8-2.9,5.3v0.8c0,3.5,1.2,5.3,2.9,5.3c1.7,0,2.9-1.8,2.9-5.3V592L51.8,592z
	"/>
<path opacity="0.1" d="M33.2,532.7h-3.7l6.9-13.6V519h-8.1v-3H40v3L33.2,532.7L33.2,532.7z M48.1,533c-4.1,0-6.4-3.4-6.4-8.3V524
	c0-4.9,2.4-8.2,6.5-8.2c4.1,0,6.4,3.3,6.4,8.2v0.8C54.5,529.4,52.3,533,48.1,533L48.1,533z M51,524c0-3.5-1.2-5.3-2.9-5.3
	s-2.9,1.8-2.9,5.3v0.8c0,3.5,1.2,5.3,2.9,5.3s2.9-1.8,2.9-5.3V524L51,524z"/>
<path opacity="0.1" d="M37,455.8v0.2c1.5,0.3,3.5,1.5,3.5,4.1c0,2.9-2.6,4.9-6.6,4.9c-4,0-6.5-2-6.5-4.9c0-2.7,2-3.8,3.5-4.1v-0.2
	c-1.5-0.4-2.9-1.6-2.9-3.7c0-2.5,2.3-4.4,5.9-4.4c3.6,0,5.9,1.9,5.9,4.4C39.9,454.3,38.5,455.4,37,455.8L37,455.8z M34,462.4
	c1.7,0,3.1-1,3.1-2.6c0-1.6-1.3-2.6-3.1-2.6c-1.7,0-3.1,1.1-3.1,2.6C30.9,461.4,32.2,462.4,34,462.4L34,462.4z M34,450.3
	c-1.5,0-2.5,0.9-2.5,2.2s1.1,2.3,2.5,2.3c1.5,0,2.5-0.9,2.5-2.3S35.4,450.3,34,450.3L34,450.3z M49.1,465c-4.1,0-6.4-3.4-6.4-8.3
	V456c0-4.9,2.4-8.2,6.5-8.2c4.1,0,6.4,3.3,6.4,8.2v0.8C55.5,461.4,53.4,465,49.1,465L49.1,465z M52,456c0-3.5-1.2-5.3-2.9-5.3
	c-1.7,0-2.9,1.8-2.9,5.3v0.8c0,3.5,1.2,5.3,2.9,5.3c1.7,0,2.9-1.8,2.9-5.3V456L52,456z"/>
<path opacity="0.1" d="M33.5,397c-3.7,0-5.5-2.2-5.6-4.2h3.3c0.2,0.7,1.1,1.3,2.3,1.3c2.5,0,3.5-2.4,3.4-5.4h-0.2
	c-0.4,1.2-1.7,2.2-3.9,2.2c-2.8,0-5.4-1.8-5.4-5.4c0-3.6,2.7-5.8,6.3-5.8c3.5,0,6.6,2.1,6.6,8.4C40.3,393.9,38,397,33.5,397
	L33.5,397z M33.7,382.5c-1.6,0-2.8,1.1-2.8,2.9c0,1.8,1.2,2.8,2.8,2.8c1.5,0,2.8-1,2.8-2.8C36.5,383.6,35.3,382.5,33.7,382.5
	L33.7,382.5z M49,397c-4.1,0-6.4-3.4-6.4-8.3V388c0-4.9,2.4-8.2,6.5-8.2c4.1,0,6.4,3.3,6.4,8.2v0.8C55.5,393.4,53.3,397,49,397
	L49,397z M51.9,388c0-3.5-1.2-5.3-2.9-5.3c-1.7,0-2.9,1.8-2.9,5.3v0.8c0,3.5,1.2,5.3,2.9,5.3c1.7,0,2.9-1.8,2.9-5.3V388L51.9,388z"
	/>
<path opacity="0.1" d="M25.9,329.7v-13.2h-0.2l-3.8,2.6v-3.3l3.9-2.8h3.5v16.7H25.9L25.9,329.7z M39.6,330c-4.1,0-6.4-3.4-6.4-8.3
	V321c0-4.9,2.4-8.2,6.5-8.2c4.1,0,6.4,3.3,6.4,8.2v0.8C46,326.4,43.9,330,39.6,330L39.6,330z M42.5,321c0-3.5-1.2-5.3-2.9-5.3
	c-1.7,0-2.9,1.8-2.9,5.3v0.8c0,3.5,1.2,5.3,2.9,5.3c1.7,0,2.9-1.8,2.9-5.3V321L42.5,321z M54.7,330c-4.1,0-6.4-3.4-6.4-8.3V321
	c0-4.9,2.4-8.2,6.5-8.2c4.1,0,6.4,3.3,6.4,8.2v0.8C61.2,326.4,59,330,54.7,330L54.7,330z M57.6,321c0-3.5-1.2-5.3-2.9-5.3
	c-1.7,0-2.9,1.8-2.9,5.3v0.8c0,3.5,1.2,5.3,2.9,5.3c1.7,0,2.9-1.8,2.9-5.3V321L57.6,321z"/>
<path opacity="0.1" d="M27.8,261.7v-13.2h-0.2l-3.8,2.6v-3.3l3.9-2.8h3.5v16.7H27.8L27.8,261.7z M39.2,261.7v-13.2H39l-3.8,2.6v-3.3
	l3.9-2.8h3.5v16.7H39.2L39.2,261.7z M52.8,262c-4.1,0-6.4-3.4-6.4-8.3V253c0-4.9,2.4-8.2,6.5-8.2c4.1,0,6.4,3.3,6.4,8.2v0.8
	C59.3,258.4,57.1,262,52.8,262L52.8,262z M55.7,253c0-3.5-1.2-5.3-2.9-5.3c-1.7,0-2.9,1.8-2.9,5.3v0.8c0,3.5,1.2,5.3,2.9,5.3
	c1.7,0,2.9-1.8,2.9-5.3V253L55.7,253z"/>
<path opacity="0.1" d="M26.5,193.7v-13.2h-0.2l-3.8,2.6v-3.3l3.9-2.8H30v16.7H26.5L26.5,193.7z M45.7,190.8v3H34v-2.3l6.1-6.4
	c0.9-0.9,1.8-2,1.8-3.3c0-1.2-1-2.1-2.4-2.1c-1.5,0-2.4,1.1-2.4,2.3c0,0.1,0,0.2,0,0.2h-3.3V182c0-2.6,1.8-5.2,5.8-5.2
	c3.5,0,5.8,2,5.8,4.7c0,2.4-1.5,3.8-2.9,5.3l-3.6,3.8v0.2H45.7L45.7,190.8z M54.2,194c-4.1,0-6.4-3.4-6.4-8.3V185
	c0-4.9,2.4-8.2,6.5-8.2c4.1,0,6.4,3.3,6.4,8.2v0.8C60.6,190.4,58.4,194,54.2,194L54.2,194z M57.1,185c0-3.5-1.2-5.3-2.9-5.3
	c-1.7,0-2.9,1.8-2.9,5.3v0.8c0,3.5,1.2,5.3,2.9,5.3c1.7,0,2.9-1.8,2.9-5.3V185L57.1,185z"/>
<path opacity="0.1" d="M26.3,126.7v-13.2h-0.2l-3.8,2.6v-3.3l3.9-2.8h3.5v16.7H26.3L26.3,126.7z M42.2,117.9v0.2
	c1.5,0.1,3.5,1.3,3.6,4c0,3.3-3,5-6.4,5c-3.9,0-6-2.2-6.1-4.8h3.2c0.1,1.1,1.3,2,2.9,2c1.8,0,2.9-1,2.9-2.3c0-1.3-1.1-2.3-2.8-2.3
	h-1.9v-2.8h1.8c1.5,0,2.5-0.9,2.5-2.1c0-1.2-1.1-2.1-2.5-2.1c-1.5,0-2.5,1-2.5,2h-3.3c0.1-2.8,2.2-4.8,5.9-4.8
	c3.5,0,5.7,1.8,5.8,4.4C45.3,116.5,43.4,117.7,42.2,117.9L42.2,117.9z M54.4,127c-4.1,0-6.4-3.4-6.4-8.3V118c0-4.9,2.4-8.2,6.5-8.2
	c4.1,0,6.4,3.3,6.4,8.2v0.8C60.8,123.4,58.6,127,54.4,127L54.4,127z M57.3,118c0-3.5-1.2-5.3-2.9-5.3c-1.7,0-2.9,1.8-2.9,5.3v0.8
	c0,3.5,1.2,5.3,2.9,5.3c1.7,0,2.9-1.8,2.9-5.3V118L57.3,118z"/>
<path opacity="0.1" d="M26.1,58.7V45.5h-0.2l-3.8,2.6v-3.3l3.9-2.8h3.5v16.7H26.1L26.1,58.7z M44.4,55.8v3h-3.3v-3H33v-3
	c1.9-3.6,4.1-7.2,6.3-10.7h5.1v10.8h2v2.9H44.4L44.4,55.8z M41.1,44.8h-0.2c-1.6,2.6-3.3,5.2-4.7,8v0.1h4.9V44.8L41.1,44.8z
	 M54.6,59c-4.1,0-6.4-3.4-6.4-8.3V50c0-4.9,2.4-8.2,6.5-8.2c4.1,0,6.4,3.3,6.4,8.2v0.8C61,55.4,58.9,59,54.6,59L54.6,59z M57.5,50
	c0-3.5-1.2-5.3-2.9-5.3c-1.7,0-2.9,1.8-2.9,5.3v0.8c0,3.5,1.2,5.3,2.9,5.3c1.7,0,2.9-1.8,2.9-5.3V50L57.5,50z"/>
<rect x="644" y="0" fill="#FF9501" width="2" height="840"/>
</svg>
