<?xml version="1.0" encoding="utf-8"?>
<!-- Generator: Adobe Illustrator 18.0.0, SVG Export Plug-In . SVG Version: 6.00 Build 0)  -->
<!DOCTYPE svg PUBLIC "-//W3C//DTD SVG 1.1//EN" "http://www.w3.org/Graphics/SVG/1.1/DTD/svg11.dtd">
<svg version="1.1" id="Ebene_1" xmlns="http://www.w3.org/2000/svg" xmlns:xlink="http://www.w3.org/1999/xlink" x="0px" y="0px"
	 viewBox="0 0 2583.1 359.3" enable-background="new 0 0 2583.1 359.3" xml:space="preserve">
<path opacity="0.5" fill="none" stroke="#FFFFFF" stroke-width="15" stroke-linecap="round" stroke-linejoin="round" stroke-miterlimit="10" d="
	M2583,202.5c-180.1,9-921.9-2-921.9-2c-66.5,3-103.1-9.2-138.4-8.5c-68.6,1.3-98.5,13.6-117.6,21.5c-12-34-19-49-19-49
	s-29,69-47,184c-4-47-54-217-63-259s0.5-74.4,29-77s15,74,9,106s-50,154-73,187c-18-26-29-208-29-208l-34,144l-30-65c0,0-7,13-15,30
	c-112.5,25-136.8-0.7-231.3-3c-83.7-2-582.9,0-889.8,0"/>
<path opacity="0.5" fill="none" stroke="#FFFFFF" stroke-width="15" stroke-linecap="round" stroke-linejoin="round" stroke-miterlimit="10" d="
	M2583.1,194.5c-200.1,9-921,9-921,9c-93.5,0-108.8-18.4-152-10.7c-67.1,12-87.4,11.4-105,18.7c-12-34-19-49-19-49s-14.7,16.2-26,56
	c-8.7,30.7-13.2,77.9-21,128c-2.4-28.4-14.2-89.5-31-152.3c-11-41.1-32.4-76.7-36-93.3c-9-42,4.5-87.8,33-90.3s18.3,67.7,12.3,99.7
	c-1.8,9.7-10.4,33.9-17.5,55c-16.5,48.9-42.7,115.3-58.8,138.3c-6.5-9.3-12-38.8-16.5-72.6c-8-60.5-9.2-145.4-9.2-145.4
	s-20,55.3-24,82s-10,76.7-10,76.7l-33.3-69.7c0,0-12.7,14.7-20.7,31.7c-44.4,3.2-71.8,13.1-99.3,12c-59.4-2.3-93.5-20.3-171.1-14.7
	c-66,4.8-612,0-857,0"/>
<path opacity="0.5" fill="none" stroke="#FFFFFF" stroke-width="15" stroke-linecap="round" stroke-linejoin="round" stroke-miterlimit="10" d="
	M0.5,203.8c0,0,793.9,0,856.4,0c65.5,0,99.8,13.9,167.2,15.6c27.5,0.7,57.8-7,102.2-10.2c8-17,21-45,21-45l33,83c0,0,3-50.3,7-77
	s27-81.7,27-81.7s-3.7,87.1,4.3,147.7c4.5,33.9,12.9,46.7,19.3,56c16.1-23,30.7-57.8,59.3-100.7c6.7-10,18.9-65,20.7-74.7
	c6-32,23.2-107.9-5.3-105.3s-39.7,40.7-30.7,82.7c3.6,16.6,14,61.9,25,103c16.8,62.9,28.6,123.9,31,152.3c7.8-50.1,12.3-97.3,21-128
	c11.3-39.8,26-56,26-56s13,17.3,25,51.3c17.6-7.3,29.1-11.3,96.2-23.3c43.2-7.8,105.1,16.7,154.8,13c0,0,766.1-2.9,922.1-3.9"/>
</svg>
