<?xml version="1.0" encoding="utf-8"?>
<!-- Generator: Adobe Illustrator 18.0.0, SVG Export Plug-In . SVG Version: 6.00 Build 0)  -->
<!DOCTYPE svg PUBLIC "-//W3C//DTD SVG 1.1//EN" "http://www.w3.org/Graphics/SVG/1.1/DTD/svg11.dtd">
<svg version="1.1" id="Ebene_1" xmlns="http://www.w3.org/2000/svg" xmlns:xlink="http://www.w3.org/1999/xlink" x="0px" y="0px"
	 viewBox="0 0 900 900" enable-background="new 0 0 900 900" xml:space="preserve">
<path fill="#FFFFFF" d="M750,6.9H154.6C71.5,6.9,6.9,71.5,6.9,154.6v590.8c0,83.1,64.6,147.7,147.7,147.7h590.8
	c83.1,0,147.7-64.6,147.7-147.7V150C893.1,71.5,828.5,6.9,750,6.9z M293.1,394.6h318.5c4.6,18.5,9.2,36.9,9.2,55.4
	c0,92.3-73.8,170.8-170.8,170.8S279.2,547,279.2,450C283.8,426.9,288.5,408.5,293.1,394.6L293.1,394.6z M782.3,394.6v332.3
	c0,32.3-23.1,55.4-55.4,55.4H173.1c-32.3,0-55.4-23.1-55.4-55.4V394.6h87.7c-4.6,13.8-4.6,32.3-4.6,55.4
	c0,138.5,110.8,249.2,249.2,249.2S699.2,588.4,699.2,450c0-18.5,0-36.9-4.6-55.4L782.3,394.6z M782.3,200.8
	c0,13.8-13.8,27.7-27.7,27.7h-55.4c-13.8,0-27.7-13.8-27.7-27.7v-55.4c0-13.8,13.8-27.7,27.7-27.7h55.4c13.8,0,27.7,13.8,27.7,27.7
	V200.8z"/>
</svg>
