<?xml version="1.0" encoding="utf-8"?>
<!-- Generator: Adobe Illustrator 18.0.0, SVG Export Plug-In . SVG Version: 6.00 Build 0)  -->
<!DOCTYPE svg PUBLIC "-//W3C//DTD SVG 1.1//EN" "http://www.w3.org/Graphics/SVG/1.1/DTD/svg11.dtd">
<svg version="1.1" id="Ebene_1" xmlns="http://www.w3.org/2000/svg" xmlns:xlink="http://www.w3.org/1999/xlink" x="0px" y="0px"
	 viewBox="0 0 900 900" enable-background="new 0 0 900 900" xml:space="preserve">
<g>
	<path fill="#FFFFFF" d="M895.4,270v544.6c0,23.1-9.2,41.5-23.1,55.4c-13.8,13.8-32.3,23.1-55.4,23.1H87.7
		c-23.1,0-41.5-9.2-55.4-23.1c-13.8-13.8-23.1-32.3-23.1-55.4V270c13.8,18.5,32.3,32.3,50.8,41.5C180,394.6,263.1,450,304.6,482.3
		c18.5,13.8,32.3,23.1,46.2,32.3c13.8,9.2,27.7,13.8,46.2,23.1c18.5,9.2,36.9,13.8,55.4,13.8l0,0c18.5,0,36.9-4.6,55.4-13.8
		c18.5-9.2,36.9-13.8,46.2-23.1c13.8-9.2,27.7-18.5,46.2-32.3c55.4-41.5,138.5-96.9,244.6-170.8C863.1,302.3,876.9,288.5,895.4,270z
		"/>
	<path fill="#FFFFFF" d="M895.4,90c0,27.7-9.2,50.8-23.1,73.8c-18.5,23.1-36.9,46.2-60,60c-124.6,87.7-203.1,138.5-230.8,161.5
		c-4.6,4.6-9.2,9.2-23.1,13.8c-9.2,9.2-18.5,13.8-27.7,18.5c-9.2,4.6-13.8,9.2-27.7,13.8c-9.2,4.6-18.5,9.2-27.7,13.8
		c-9.2,4.6-18.5,4.6-23.1,4.6l0,0c-9.2,0-13.8,0-23.1-4.6c-13.8,0-23.1-4.6-32.3-9.2c-9.2-4.6-18.5-13.8-27.7-18.5
		c-9.2-4.6-13.8-9.2-23.1-18.5c-13.8-4.6-18.5-9.2-23.1-13.8c-32.3-23.1-73.8-50.8-129.2-92.3s-92.3-60-101.5-69.2
		c-23.1-13.8-41.5-32.3-60-55.4S4.6,122.3,4.6,99.2c0-27.7,4.6-46.2,18.5-64.6s32.3-27.7,60-27.7h729.2c23.1,0,41.5,9.2,55.4,23.1
		S895.4,66.9,895.4,90z"/>
</g>
</svg>
