<?xml version="1.0" encoding="utf-8"?>
<!-- Generator: Adobe Illustrator 18.0.0, SVG Export Plug-In . SVG Version: 6.00 Build 0)  -->
<!DOCTYPE svg PUBLIC "-//W3C//DTD SVG 1.1//EN" "http://www.w3.org/Graphics/SVG/1.1/DTD/svg11.dtd">
<svg version="1.1" id="Ebene_1" xmlns="http://www.w3.org/2000/svg" xmlns:xlink="http://www.w3.org/1999/xlink" x="0px" y="0px"
	 viewBox="0 0 222 245" enable-background="new 0 0 222 245" xml:space="preserve">
<g>
	<path d="M170.9,234.4H40.4c-16.5,0-29.9-13.4-29.9-29.9V40.4c0-16.5,13.4-29.9,29.9-29.9h130.5c16.5,0,29.9,13.4,29.9,29.9v164.1
		C200.8,221.1,187.4,234.4,170.9,234.4z"/>
	<path fill="#E1E1E1" d="M214.4,54.3h-3.7v-14c0-21.9-17.8-39.7-39.7-39.7H40.3C18.4,0.6,0.6,18.4,0.6,40.3v164.4
		c0,21.9,17.8,39.7,39.7,39.7H171c21.9,0,39.7-17.8,39.7-39.7V194h1.5c0.6,0,1.1-0.5,1.1-1.1V126c0-0.6-0.5-1.1-1.1-1.1h-1.5V100
		h3.7c3.9,0,7-3.1,7-7V61.2C221.4,57.4,218.3,54.3,214.4,54.3z M200.8,204.7c0,16.4-13.3,29.7-29.7,29.7H40.3
		c-16.4,0-29.7-13.3-29.7-29.7V40.3c0-16.4,13.3-29.7,29.7-29.7H171c16.4,0,29.7,13.3,29.7,29.7V204.7z"/>
	<g>
		<path fill="#9BA0AA" d="M134.2,49.8v-8.5h-0.1l-2.3,1.6v-1.2l2.3-1.7h1.1v9.7H134.2L134.2,49.8z M141.6,50c-2.2,0-3.4-1.9-3.4-4.9
			v-0.3c0-3,1.2-4.9,3.4-4.9c2.2,0,3.4,2,3.4,4.9v0.3C145.1,48.1,143.8,50,141.6,50L141.6,50z M143.9,44.8c0-2.4-0.9-3.9-2.3-3.9
			c-1.4,0-2.3,1.5-2.3,3.9v0.3c0,2.4,0.9,3.9,2.3,3.9c1.4,0,2.3-1.5,2.3-3.9V44.8L143.9,44.8z M148.3,45.1c-0.5,0-0.9-0.4-0.9-0.9
			c0-0.6,0.4-1,0.9-1c0.6,0,1,0.4,1,1C149.3,44.6,148.8,45.1,148.3,45.1L148.3,45.1z M148.3,48c0.6,0,1,0.4,1,1c0,0.5-0.4,0.9-1,0.9
			c-0.5,0-0.9-0.4-0.9-0.9C147.3,48.4,147.8,48,148.3,48L148.3,48z M155,50c-2.2,0-3.4-1.9-3.4-4.9v-0.3c0-3,1.2-4.9,3.4-4.9
			c2.2,0,3.4,2,3.4,4.9v0.3C158.4,48.1,157.1,50,155,50L155,50z M157.3,44.8c0-2.4-0.9-3.9-2.3-3.9c-1.4,0-2.3,1.5-2.3,3.9v0.3
			c0,2.4,0.9,3.9,2.3,3.9c1.4,0,2.3-1.5,2.3-3.9V44.8L157.3,44.8z M163.4,50c-1.7,0-2.7-0.9-2.8-2h1.2c0.1,0.5,0.7,1,1.7,1
			c1.9,0,2.5-1.9,2.5-4.1h-0.1c-0.3,0.8-1.1,1.6-2.4,1.6c-1.8,0-3.1-1.2-3.1-3.3c0-2.1,1.5-3.3,3.3-3.3c1.6,0,3.4,0.9,3.4,4.8
			C167,48.2,165.9,50,163.4,50L163.4,50z M163.5,40.9c-1.1,0-2.1,0.8-2.1,2.3c0,1.5,1,2.2,2.1,2.2c1.1,0,2.1-0.7,2.1-2.2
			C165.7,41.7,164.8,40.9,163.5,40.9L163.5,40.9z"/>
		<path fill-rule="evenodd" clip-rule="evenodd" fill="#69AF77" d="M40.8,168.6h129.6c3,0,5.5,2.5,5.5,5.5v25.6c0,3-2.5,5.5-5.5,5.5
			H40.8c-3,0-5.5-2.5-5.5-5.5v-25.6C35.4,171.1,37.8,168.6,40.8,168.6L40.8,168.6z"/>
		<path fill="#FFFFFF" d="M60.1,191.6h-3.1v-9.7h3.1c3.1,0,4.3,2,4.3,4.9C64.4,189.5,63.3,191.6,60.1,191.6L60.1,191.6z M60.1,182.9
			h-1.9v7.7h1.9c2.2,0,3.1-1.4,3.1-3.8C63.2,184.3,62.3,182.9,60.1,182.9L60.1,182.9z M69.4,191.7c-1.8,0-3.2-1.2-3.2-3.3v-1.2
			c0-2,1.4-3.3,3.2-3.3c1.8,0,3.2,1.2,3.2,3.3v1.2C72.6,190.5,71.2,191.7,69.4,191.7L69.4,191.7z M71.4,187.4c0-1.4-0.8-2.4-2-2.4
			c-1.2,0-2.1,1-2.1,2.4v0.9c0,1.5,0.8,2.4,2.1,2.4c1.3,0,2-0.9,2-2.4V187.4L71.4,187.4z M80.7,190.7c0.2,0,0.5,0,0.6,0v0.9
			c-0.1,0-0.6,0.1-0.9,0.1c-1.8,0-2.1-0.7-2.1-2.2V185h-1.1v-0.9h1.1v-1.9h1.1v1.9h1.7v0.9h-1.7v4.5
			C79.5,190.5,79.8,190.7,80.7,190.7L80.7,190.7z M88.4,191.6v-4.7c0-1.2-0.7-1.9-1.7-1.9c-1.4,0-2.1,1.1-2.1,2.4v4.2h-1.1V181h1.1
			v4.4h0.1c0.1-0.5,0.8-1.5,2.3-1.5c1.4,0,2.5,0.8,2.5,2.5v5.1H88.4L88.4,191.6z M92.9,188.1v0.4c0,1.2,0.7,2.2,2,2.2
			c0.9,0,1.5-0.4,1.7-0.9h1.2c-0.1,0.8-1,1.9-2.8,1.9c-2,0-3.1-1.3-3.1-3.3v-1.2c0-2,1.3-3.3,3-3.3c1.8,0,3,1.3,3,3.3v0.9H92.9
			L92.9,188.1z M96.7,187.1c0-1.3-0.8-2.2-1.9-2.2c-1.2,0-1.9,0.9-1.9,2.2v0.1h3.8V187.1L96.7,187.1z M103.8,188.1v0.4
			c0,1.2,0.7,2.2,2,2.2c0.9,0,1.5-0.4,1.7-0.9h1.2c-0.1,0.8-1,1.9-2.8,1.9c-2,0-3.1-1.3-3.1-3.3v-1.2c0-2,1.3-3.3,3-3.3
			c1.8,0,3,1.3,3,3.3v0.9H103.8L103.8,188.1z M107.7,187.1c0-1.3-0.8-2.2-1.9-2.2c-1.2,0-1.9,0.9-1.9,2.2v0.1h3.8V187.1L107.7,187.1
			z M116.5,191.6h-1.4l-1.8-2.8h0l-1.8,2.8h-1.3l2.5-3.7l-2.6-3.8h1.4l1.8,2.8h0l1.8-2.8h1.3l-2.6,3.7L116.5,191.6L116.5,191.6z
			 M118.9,188.1v0.4c0,1.2,0.7,2.2,2,2.2c0.9,0,1.5-0.4,1.7-0.9h1.2c-0.1,0.8-1,1.9-2.8,1.9c-2,0-3.1-1.3-3.1-3.3v-1.2
			c0-2,1.3-3.3,3-3.3c1.8,0,3,1.3,3,3.3v0.9H118.9L118.9,188.1z M122.7,187.1c0-1.3-0.8-2.2-1.9-2.2c-1.2,0-1.9,0.9-1.9,2.2v0.1h3.8
			V187.1L122.7,187.1z M129.2,185c-1.3,0-2,0.8-2,1.8v4.7H126v-7.5h1.1v1.1h0.1c0.2-0.5,0.7-1.3,2.1-1.3c0.1,0,0.3,0,0.4,0v1
			C129.6,185,129.4,185,129.2,185L129.2,185z M134.1,185c-1.3,0-2,0.9-2,2.2v1.3c0,1.3,0.7,2.2,2,2.2c1.2,0,1.6-0.5,1.7-1.1h1.1
			c-0.1,1-0.9,2.1-2.9,2.1c-1.9,0-3.1-1.2-3.1-3.2v-1.3c0-1.9,1.2-3.2,3.1-3.2c1.8,0,2.8,1.1,2.8,2.2h-1.1
			C135.7,185.7,135.3,185,134.1,185L134.1,185z M139.9,182.6c-0.5,0-0.8-0.4-0.8-0.8c0-0.5,0.4-0.8,0.8-0.8c0.5,0,0.9,0.4,0.9,0.8
			C140.7,182.2,140.4,182.6,139.9,182.6L139.9,182.6z M140.5,191.6h-1.1v-7.5h1.1V191.6L140.5,191.6z M145.6,184.9
			c-0.9,0-1.6,0.4-1.6,1.2c0,0.9,1,1,1.8,1.2c1.4,0.2,2.6,0.6,2.6,2.1c0,1.5-1.2,2.3-2.9,2.3c-1.6,0-2.7-0.7-2.7-2.1h1.1
			c0.1,0.7,0.6,1.1,1.7,1.1c1.3,0,1.8-0.6,1.8-1.2c0-0.9-0.8-1-1.9-1.2c-1.4-0.3-2.6-0.6-2.6-2.1c0-1.6,1.3-2.2,2.7-2.2
			c1.6,0,2.6,0.8,2.6,2.1h-1.1C147.1,185.5,146.6,184.9,145.6,184.9L145.6,184.9z M151.3,188.1v0.4c0,1.2,0.7,2.2,2,2.2
			c0.9,0,1.5-0.4,1.7-0.9h1.2c-0.1,0.8-1,1.9-2.8,1.9c-2,0-3.1-1.3-3.1-3.3v-1.2c0-2,1.3-3.3,3-3.3c1.8,0,3,1.3,3,3.3v0.9H151.3
			L151.3,188.1z M155.1,187.1c0-1.3-0.8-2.2-1.9-2.2c-1.2,0-1.9,0.9-1.9,2.2v0.1h3.8V187.1L155.1,187.1z"/>
		<path fill-rule="evenodd" clip-rule="evenodd" fill="#FFFFFF" d="M40.8,61.8h129.6c3,0,5.5,2.5,5.5,5.5v92.2c0,3-2.5,5.5-5.5,5.5
			H40.8c-3,0-5.5-2.5-5.5-5.5V67.3C35.4,64.3,37.8,61.8,40.8,61.8L40.8,61.8z"/>
		<path fill="#0C0C0C" d="M47,123.7c-1.6,0-2.6,1.1-2.6,3.4v1.4c0,2.3,1.1,3.3,2.7,3.3c1.6,0,2.4-1,2.4-2h1.1c0,1.3-1.1,3.1-3.6,3.1
			c-2.3,0-3.8-1.5-3.8-4.3v-1.5c0-2.8,1.5-4.4,3.8-4.4c2.4,0,3.5,1.7,3.5,3.3h-1.1C49.4,124.9,48.6,123.7,47,123.7L47,123.7z
			 M57.2,132.6v-1h0c-0.4,0.6-1.1,1.1-2.2,1.1c-1.4,0-2.4-0.9-2.4-2.3c0-1.3,0.9-2.2,2.6-2.2h2v-0.8c0-1-0.6-1.5-1.7-1.5
			c-1,0-1.4,0.4-1.6,0.9h-1.1c0.1-1.3,1.2-1.9,2.7-1.9c1.5,0,2.7,0.7,2.7,2.5v5.1H57.2L57.2,132.6z M57.1,129.2h-2
			c-1.1,0-1.5,0.5-1.5,1.2c0,0.9,0.7,1.3,1.6,1.3c1.1,0,1.9-0.7,1.9-1.7V129.2L57.1,129.2z M60.8,132.6v-10.5H62v10.5H60.8
			L60.8,132.6z M73.4,132.6v-5c0-1-0.5-1.6-1.6-1.6c-1,0-1.7,0.8-1.7,1.8v4.8h-1.1v-4.9c0-1-0.6-1.7-1.7-1.7c-1,0-1.7,0.8-1.7,1.8
			v4.8h-1.1v-7.5h1.1v1.2h0.1c0.2-0.5,0.6-1.3,2-1.3c1.1,0,1.8,0.6,2.1,1.4h0c0.3-0.7,1-1.4,2.3-1.4c1.5,0,2.5,0.8,2.5,2.3v5.3H73.4
			L73.4,132.6z M85,132.6v-1.2H85c-0.2,0.6-1,1.3-2.3,1.3c-1.7,0-2.9-1.2-2.9-3.1v-1.6c0-1.8,1.1-3.1,2.9-3.1c1.2,0,1.9,0.6,2.2,1.2
			H85v-4.1h1.1v10.5H85L85,132.6z M85,128.1c0-1.2-0.9-2.1-2.1-2.1c-1.2,0-2,0.9-2,2.4v1c0,1.5,0.8,2.4,2,2.4c1.2,0,2-0.9,2-2.3
			V128.1L85,128.1z M91.3,132.8c-1.8,0-3.2-1.2-3.2-3.3v-1.2c0-2,1.4-3.3,3.2-3.3c1.8,0,3.2,1.2,3.2,3.3v1.2
			C94.5,131.6,93.1,132.8,91.3,132.8L91.3,132.8z M93.4,128.4c0-1.4-0.8-2.4-2-2.4c-1.2,0-2.1,1-2.1,2.4v0.9c0,1.5,0.8,2.4,2.1,2.4
			c1.3,0,2-0.9,2-2.4V128.4L93.4,128.4z M103.8,132.6h-1.1l-1.8-5.8h0l-1.7,5.8h-1.1l-2.1-7.5h1.3l1.4,6h0l1.7-6h1.1l1.8,6h0.1
			l1.4-6h1.1L103.8,132.6L103.8,132.6z M112.3,132.6v-4.8c0-1.2-0.6-1.8-1.7-1.8c-1.4,0-2.1,1.1-2.1,2.4v4.2h-1.1v-7.5h1.1v1.4h0.1
			c0.2-0.6,0.7-1.5,2.3-1.5c1.5,0,2.6,0.8,2.6,2.5v5.1H112.3L112.3,132.6z M122,132.7l-0.2,0.5c-0.4,1.1-0.9,2.1-2.4,2.1
			c-0.2,0-0.5,0-0.7-0.1v-0.9c0.1,0,0.4,0,0.5,0c0.9,0,1.3-0.4,1.5-1.2l0.1-0.4l-2.8-7.6h1.2l2.1,6.3h0l2.1-6.3h1.2L122,132.7
			L122,132.7z M129,132.8c-1.8,0-3.2-1.2-3.2-3.3v-1.2c0-2,1.4-3.3,3.2-3.3c1.8,0,3.2,1.2,3.2,3.3v1.2
			C132.2,131.6,130.8,132.8,129,132.8L129,132.8z M131.1,128.4c0-1.4-0.8-2.4-2-2.4c-1.2,0-2.1,1-2.1,2.4v0.9c0,1.5,0.8,2.4,2.1,2.4
			c1.3,0,2-0.9,2-2.4V128.4L131.1,128.4z M139.4,132.6v-1.2h-0.1c-0.2,0.6-0.9,1.4-2.2,1.4c-1.5,0-2.6-0.6-2.6-2.4v-5.2h1.1v4.9
			c0,1.3,0.8,1.7,1.7,1.7c1.2,0,2-0.9,2-1.8v-4.8h1.1v7.5H139.4L139.4,132.6z M146.2,126.1c-1.3,0-2,0.8-2,1.8v4.7h-1.1v-7.5h1.1
			v1.1h0.1c0.2-0.5,0.7-1.3,2.1-1.3c0.1,0,0.3,0,0.4,0v1C146.7,126.1,146.5,126.1,146.2,126.1L146.2,126.1z M45.8,142.9
			c-0.9,0-1.6,0.4-1.6,1.2c0,0.9,1,1,1.8,1.2c1.4,0.2,2.6,0.6,2.6,2.1c0,1.5-1.2,2.3-2.9,2.3c-1.6,0-2.7-0.7-2.7-2.1h1.1
			c0.1,0.7,0.6,1.1,1.7,1.1c1.3,0,1.8-0.6,1.8-1.2c0-0.9-0.8-1-1.9-1.2c-1.4-0.3-2.6-0.6-2.6-2.1c0-1.6,1.3-2.2,2.7-2.2
			c1.6,0,2.6,0.8,2.6,2.1h-1.1C47.4,143.4,46.9,142.9,45.8,142.9L45.8,142.9z M53.6,148.6c0.2,0,0.5,0,0.6,0v0.9
			c-0.1,0-0.6,0.1-0.9,0.1c-1.8,0-2.1-0.7-2.1-2.2V143h-1.1V142h1.1v-1.9h1.1v1.9H54v0.9h-1.7v4.5C52.3,148.4,52.6,148.6,53.6,148.6
			L53.6,148.6z M59.3,143c-1.3,0-2,0.8-2,1.8v4.7h-1.1V142h1.1v1.1h0.1c0.2-0.5,0.7-1.3,2.1-1.3c0.1,0,0.3,0,0.4,0v1
			C59.8,143,59.6,143,59.3,143L59.3,143z M62.6,146.1v0.4c0,1.2,0.7,2.2,2,2.2c0.9,0,1.5-0.4,1.7-0.9h1.2c-0.1,0.8-1,1.9-2.8,1.9
			c-2,0-3.1-1.3-3.1-3.3v-1.2c0-2,1.3-3.3,3-3.3c1.8,0,3,1.3,3,3.3v0.9H62.6L62.6,146.1z M66.4,145.1c0-1.3-0.8-2.2-1.9-2.2
			c-1.2,0-1.9,0.9-1.9,2.2v0.1h3.8V145.1L66.4,145.1z M72,142.9c-0.9,0-1.6,0.4-1.6,1.2c0,0.9,1,1,1.8,1.2c1.4,0.2,2.6,0.6,2.6,2.1
			c0,1.5-1.2,2.3-2.9,2.3c-1.6,0-2.7-0.7-2.7-2.1h1.1c0.1,0.7,0.6,1.1,1.7,1.1c1.3,0,1.8-0.6,1.8-1.2c0-0.9-0.8-1-1.9-1.2
			c-1.4-0.3-2.6-0.6-2.6-2.1c0-1.6,1.3-2.2,2.7-2.2c1.6,0,2.6,0.8,2.6,2.1h-1.1C73.6,143.4,73.1,142.9,72,142.9L72,142.9z
			 M79.3,142.9c-0.9,0-1.6,0.4-1.6,1.2c0,0.9,1,1,1.8,1.2c1.4,0.2,2.6,0.6,2.6,2.1c0,1.5-1.2,2.3-2.9,2.3c-1.6,0-2.7-0.7-2.7-2.1
			h1.1c0.1,0.7,0.6,1.1,1.7,1.1c1.3,0,1.8-0.6,1.8-1.2c0-0.9-0.8-1-1.9-1.2c-1.4-0.3-2.6-0.6-2.6-2.1c0-1.6,1.3-2.2,2.7-2.2
			c1.6,0,2.6,0.8,2.6,2.1h-1.1C80.9,143.4,80.4,142.9,79.3,142.9L79.3,142.9z M84.2,152.2h-0.9l1-3.9h1.3L84.2,152.2L84.2,152.2z
			 M94.5,149.6c-1.2,0-2-0.6-2.2-1.2h-0.1v1.1h-1.1V139h1.1v4.2h0.1c0.2-0.6,0.9-1.3,2.2-1.3c1.7,0,2.9,1.2,2.9,3.2v1.4
			C97.4,148.5,96.3,149.6,94.5,149.6L94.5,149.6z M96.3,145.4c0-1.6-0.7-2.5-2-2.5c-1.3,0-2.1,0.9-2.1,2.3v1.3
			c0,1.2,0.8,2.1,2.1,2.1c1.1,0,2-0.8,2-2.4V145.4L96.3,145.4z M102.8,143c-1.3,0-2,0.8-2,1.8v4.7h-1.1V142h1.1v1.1h0.1
			c0.2-0.5,0.7-1.3,2.1-1.3c0.1,0,0.3,0,0.4,0v1C103.2,143,103,143,102.8,143L102.8,143z M106,146.1v0.4c0,1.2,0.7,2.2,2,2.2
			c0.9,0,1.5-0.4,1.7-0.9h1.2c-0.1,0.8-1,1.9-2.8,1.9c-2,0-3.1-1.3-3.1-3.3v-1.2c0-2,1.3-3.3,3-3.3c1.8,0,3,1.3,3,3.3v0.9H106
			L106,146.1z M109.9,145.1c0-1.3-0.8-2.2-1.9-2.2c-1.2,0-1.9,0.9-1.9,2.2v0.1h3.8V145.1L109.9,145.1z M117.4,149.5v-1h-0.1
			c-0.4,0.6-1.1,1.1-2.2,1.1c-1.4,0-2.4-0.9-2.4-2.3c0-1.3,0.9-2.2,2.6-2.2h2v-0.8c0-1-0.6-1.5-1.7-1.5c-1,0-1.4,0.4-1.6,0.9H113
			c0.1-1.3,1.2-1.9,2.7-1.9c1.5,0,2.7,0.7,2.7,2.5v5.1H117.4L117.4,149.5z M117.3,146.1h-2c-1.1,0-1.5,0.5-1.5,1.2
			c0,0.9,0.7,1.3,1.6,1.3c1.1,0,1.9-0.7,1.9-1.7V146.1L117.3,146.1z M123.7,148.6c0.2,0,0.5,0,0.6,0v0.9c-0.1,0-0.6,0.1-0.9,0.1
			c-1.8,0-2.1-0.7-2.1-2.2V143h-1.1V142h1.1v-1.9h1.1v1.9h1.7v0.9h-1.7v4.5C122.5,148.4,122.8,148.6,123.7,148.6L123.7,148.6z
			 M131.2,149.5v-4.7c0-1.2-0.7-1.9-1.7-1.9c-1.4,0-2.1,1.1-2.1,2.4v4.2h-1.1V139h1.1v4.4h0.1c0.1-0.5,0.8-1.5,2.3-1.5
			c1.4,0,2.5,0.8,2.5,2.5v5.1H131.2L131.2,149.5z M135.9,140.5c-0.5,0-0.8-0.4-0.8-0.8c0-0.5,0.4-0.8,0.8-0.8c0.5,0,0.9,0.4,0.9,0.8
			C136.7,140.2,136.4,140.5,135.9,140.5L135.9,140.5z M136.4,149.5h-1.1V142h1.1V149.5L136.4,149.5z M144.2,149.5v-4.8
			c0-1.2-0.6-1.8-1.7-1.8c-1.4,0-2.1,1.1-2.1,2.4v4.2h-1.1V142h1.1v1.4h0.1c0.2-0.6,0.7-1.5,2.3-1.5c1.5,0,2.6,0.8,2.6,2.5v5.1
			H144.2L144.2,149.5z M150.3,152.3c-1.9,0-2.8-0.9-2.9-2h1.2c0.1,0.5,0.7,1,1.8,1c1.4,0,2.1-0.7,2.1-2v-1.1h-0.1
			c-0.3,0.6-1.1,1.2-2.1,1.2c-1.7,0-3-1.2-3-3.1V145c0-1.9,1.3-3.1,3-3.1c1.1,0,1.9,0.6,2.2,1.2h0V142h1.1v7.3
			C153.5,151.4,152.2,152.3,150.3,152.3L150.3,152.3z M152.4,145.1c0-1.1-0.7-2.2-2-2.2c-1.3,0-2.1,1-2.1,2.4v0.7
			c0,1.4,0.9,2.4,2.1,2.4c1.3,0,1.9-1,1.9-2.1V145.1L152.4,145.1z M156.9,149.6c-0.5,0-0.9-0.4-0.9-0.9c0-0.6,0.4-1,0.9-1
			c0.6,0,1,0.4,1,1C157.8,149.2,157.4,149.6,156.9,149.6L156.9,149.6z"/>
		<path fill="#69AF77" d="M47.1,106.5v8.2h-1.7v-8.2h-2.8V105h7.4v1.5H47.1L47.1,106.5z M54.9,114.7v-1h-0.1c-0.3,0.6-1,1.1-2.1,1.1
			c-1.5,0-2.5-0.9-2.5-2.3c0-1.3,0.9-2.2,2.7-2.2h1.9v-0.7c0-0.8-0.5-1.2-1.4-1.2c-0.8,0-1.2,0.3-1.3,0.8h-1.6c0.1-1.2,1-2.2,3-2.2
			c1.6,0,3,0.7,3,2.6v5.1H54.9L54.9,114.7z M54.9,111.4h-1.6c-0.9,0-1.3,0.4-1.3,1c0,0.7,0.6,1.1,1.3,1.1c0.9,0,1.6-0.6,1.6-1.3
			V111.4L54.9,111.4z M65.6,114.7h-2l-2.3-3.3l-0.6,0.6v2.7h-1.7v-10.4h1.7v6.1h0.1l2.7-3.2h1.9l-2.8,3.3L65.6,114.7L65.6,114.7z
			 M68.2,111.4v0.4c0,1,0.6,1.8,1.7,1.8c0.8,0,1.4-0.4,1.5-0.8H73c-0.1,0.9-1,2.2-3.1,2.2c-2.1,0-3.4-1.2-3.4-3.4v-1
			c0-2.2,1.4-3.4,3.3-3.4c1.9,0,3.3,1.3,3.3,3.4v0.9H68.2L68.2,111.4z M71.5,110.2c0-1.1-0.6-1.8-1.6-1.8c-1,0-1.6,0.7-1.6,1.8v0.1
			L71.5,110.2L71.5,110.2L71.5,110.2z M82.7,114.7v-1h-0.1c-0.3,0.6-1,1.1-2.1,1.1c-1.5,0-2.5-0.9-2.5-2.3c0-1.3,0.9-2.2,2.7-2.2
			h1.9v-0.7c0-0.8-0.5-1.2-1.4-1.2c-0.8,0-1.2,0.3-1.3,0.8h-1.6c0.1-1.2,1-2.2,3-2.2c1.6,0,3,0.7,3,2.6v5.1H82.7L82.7,114.7z
			 M82.6,111.4H81c-0.9,0-1.3,0.4-1.3,1c0,0.7,0.6,1.1,1.3,1.1c0.9,0,1.6-0.6,1.6-1.3V111.4L82.6,111.4z M95.2,109.5L95.2,109.5
			c1.3,0.2,2.2,1.1,2.2,2.5c0,1.8-1.5,2.7-3.4,2.7h-3.9V105H94c1.7,0,2.8,0.9,2.8,2.4C96.8,108.6,96.1,109.3,95.2,109.5L95.2,109.5z
			 M91.8,113.4h1.5c1.4,0,2.3-0.3,2.3-1.5c0-1-0.7-1.5-1.8-1.5h-2V113.4L91.8,113.4z M93.6,106.4h-1.9v2.7h1.3c1.3,0,2-0.4,2-1.4
			C95.1,106.8,94.5,106.4,93.6,106.4L93.6,106.4z M103.1,108.6c-1.3,0-1.9,0.7-1.9,1.7v4.4h-1.7v-7.6h1.7v1.2h0.1
			c0.2-0.5,0.7-1.3,2-1.3c0.2,0,0.4,0,0.6,0v1.5C103.6,108.6,103.3,108.6,103.1,108.6L103.1,108.6z M106.4,111.4v0.4
			c0,1,0.6,1.8,1.7,1.8c0.8,0,1.4-0.4,1.5-0.8h1.6c-0.1,0.9-1,2.2-3.1,2.2c-2.1,0-3.4-1.2-3.4-3.4v-1c0-2.2,1.4-3.4,3.3-3.4
			c1.9,0,3.3,1.3,3.3,3.4v0.9H106.4L106.4,111.4z M109.7,110.2c0-1.1-0.6-1.8-1.6-1.8c-1,0-1.6,0.7-1.6,1.8v0.1L109.7,110.2
			L109.7,110.2L109.7,110.2z M117.8,114.7v-1h-0.1c-0.3,0.6-1,1.1-2.1,1.1c-1.5,0-2.5-0.9-2.5-2.3c0-1.3,0.9-2.2,2.7-2.2h1.9v-0.7
			c0-0.8-0.5-1.2-1.4-1.2c-0.8,0-1.2,0.3-1.3,0.8h-1.6c0.1-1.2,1-2.2,3-2.2c1.6,0,3,0.7,3,2.6v5.1H117.8L117.8,114.7z M117.7,111.4
			h-1.6c-0.9,0-1.3,0.4-1.3,1c0,0.7,0.6,1.1,1.3,1.1c0.9,0,1.6-0.6,1.6-1.3V111.4L117.7,111.4z M124.7,113.4c0.2,0,0.5,0,0.6,0v1.3
			c-0.1,0-0.7,0.1-1,0.1c-1.9,0-2.4-0.6-2.4-2.2v-4h-1.1v-1.3h1.2v-1.9h1.6v1.9h1.7v1.3h-1.7v3.8
			C123.5,113.2,123.8,113.4,124.7,113.4L124.7,113.4z M132,114.7v-4.6c0-1.1-0.6-1.6-1.5-1.6c-1.1,0-1.7,0.8-1.7,2v4.2h-1.7v-10.4
			h1.7v4.2h0.1c0.2-0.5,0.8-1.5,2.3-1.5c1.5,0,2.5,0.9,2.5,2.6v5.1H132L132,114.7z"/>
		<path fill-rule="evenodd" clip-rule="evenodd" fill="#69AF77" d="M40.8,61.4h129.6c3,0,5.5,2.5,5.5,5.5v21.9H35.4V66.9
			C35.4,63.8,37.8,61.4,40.8,61.4L40.8,61.4z"/>
		<path fill="#FFFFFF" d="M137.8,72c-1.4,0-2.3,1-2.3,2.9v1.2c0,2,0.9,2.9,2.3,2.9c1.4,0,2.1-0.8,2.1-1.8h1c0,1.2-0.9,2.7-3.1,2.7
			c-2,0-3.3-1.3-3.3-3.8V75c0-2.4,1.3-3.8,3.3-3.8c2.1,0,3.1,1.5,3.1,2.8h-1C139.9,73.1,139.2,72,137.8,72L137.8,72z M148,79.8
			l-0.9-2.6h-3.2l-0.9,2.6h-1l3.1-8.5h1l3.1,8.5H148L148,79.8z M145.5,72.5L145.5,72.5l-1.3,3.8h2.7L145.5,72.5L145.5,72.5z
			 M150.9,79.8v-8.5h1v7.6h4v0.9H150.9L150.9,79.8z M164.2,79.8v-6.3h-0.1l-2.4,5.7h-0.9l-2.4-5.7h0v6.3h-0.9v-8.5h1l2.9,6.8h0
			l2.9-6.8h1v8.5H164.2L164.2,79.8z"/>
		<g>
			<g>
				<circle fill="#8ECF9B" cx="63.7" cy="65.2" r="20.1"/>
			</g>
			<g>
				<g>
					<path fill="#FFFFFF" d="M83.7,63.6c-4.7,0.3-8.6,2.4-10.3,3.2l-1.4-4.1c-0.1-0.3-0.3-0.5-0.6-0.5c-0.3,0-0.5,0.2-0.6,0.4
						c0,0.1-2.4,6-3.7,13.1c-0.5-1.9-1.1-4.1-1.7-6.5c-0.4-1.6-0.9-3.3-1.4-5.1c2.3-6.9,3-11.6,2-13.8c-0.5-1-1.3-1.6-2.4-1.6
						c-0.9,0-1.6,0.3-2.1,1c-1.7,2.2-0.6,7.9,1.1,14.3c0,0.1,0,0.1-0.1,0.2c-1.5,4.2-3.1,8.1-4,9.9c-0.5-1.5-1.1-4.2-1.5-9.4
						c-0.4-4.3-0.5-8.1-0.5-8.2c0-0.3-0.3-0.6-0.6-0.7c-0.3,0-0.6,0.2-0.7,0.5L52.4,68l-1.6-4.3c-0.1-0.3-0.4-0.4-0.6-0.4
						c-0.3,0-0.5,0.2-0.6,0.5l-0.8,2.5c-1,0-3.1,0-5,0.6c0,0.5,0.1,0.9,0.2,1.4c2.3-0.9,5.2-0.6,5.2-0.6c0.3,0,0.6-0.2,0.7-0.5
						l0.4-1.2l1.7,4.6c0.1,0.3,0.4,0.5,0.7,0.4c0.3,0,0.5-0.2,0.6-0.5l2.1-9.1c0.1,1.1,0.2,2.2,0.3,3.4c0.5,5.8,1.3,9.6,2.3,11.2
						c0.1,0.2,0.3,0.3,0.5,0.3c0.2,0,0.4-0.1,0.6-0.2c0.5-0.6,2.5-4.9,4.2-9.7c0.3,1.1,0.6,2.1,0.9,3.2c1.3,4.5,2.5,8.8,2.4,10.7
						c0,0.4,0.3,0.7,0.6,0.7c0,0,0,0,0,0c0.3,0,0.6-0.3,0.7-0.6c0.6-6.4,2.5-12.5,3.5-15.4l1,3c0.1,0.2,0.2,0.3,0.4,0.4
						c0.2,0.1,0.4,0.1,0.6,0c0.1,0,4.9-3,10.4-3.4C83.8,64.5,83.8,64,83.7,63.6z M62.6,50.6c0.2-0.3,0.6-0.5,1-0.5
						c0.6,0,0.9,0.2,1.2,0.8c0.7,1.6,0.2,5.5-1.4,10.8C62.2,56.7,61.4,52.1,62.6,50.6z"/>
				</g>
			</g>
		</g>
	</g>
</g>
</svg>
