<?xml version="1.0" encoding="utf-8"?>
<!-- Generator: Adobe Illustrator 18.0.0, SVG Export Plug-In . SVG Version: 6.00 Build 0)  -->
<!DOCTYPE svg PUBLIC "-//W3C//DTD SVG 1.1//EN" "http://www.w3.org/Graphics/SVG/1.1/DTD/svg11.dtd">
<svg version="1.1" id="Ebene_1" xmlns="http://www.w3.org/2000/svg" xmlns:xlink="http://www.w3.org/1999/xlink" x="0px" y="0px"
	 viewBox="0 0 900 900" enable-background="new 0 0 900 900" xml:space="preserve">
<path fill="#FFFFFF" enable-background="new    " d="M740.8,6.9H154.6C71.5,6.9,6.9,71.5,6.9,154.6v590.8
	c0,83.1,64.6,147.7,147.7,147.7h590.8c83.1,0,147.7-64.6,147.7-147.7V154.6C888.5,71.5,823.8,6.9,740.8,6.9z M666.9,334.6
	c0,4.6,0,9.2,0,13.8c0,147.7-115.4,323.1-323.1,323.1c-64.6,0-124.6-18.5-175.4-50.8c9.2,0,18.5,0,27.7,0
	c55.4,0,101.5-18.5,143.1-50.8c-50.8,0-92.3-32.3-106.2-78.5c9.2,0,13.8,0,23.1,0c9.2,0,18.5,0,27.7-4.6
	c-50.8-9.2-92.3-55.4-92.3-110.8l0,0c18.5,13.8,36.9,18.5,55.4,18.5c-32.3-18.5-50.8-55.4-50.8-92.3c0-23.1,4.6-41.5,13.8-55.4
	c55.4,69.2,138.5,115.4,235.4,120c0-9.2-4.6-18.5-4.6-27.7c0-64.6,50.8-115.4,115.4-115.4c32.3,0,60,13.8,83.1,36.9
	c27.7-4.6,50.8-13.8,73.8-27.7c-9.2,27.7-27.7,50.8-50.8,64.6c23.1-4.6,46.2-9.2,64.6-18.5C708.5,297.7,690,320.8,666.9,334.6
	L666.9,334.6z"/>
</svg>
