<?xml version="1.0" encoding="utf-8"?>
<!-- Generator: Adobe Illustrator 18.0.0, SVG Export Plug-In . SVG Version: 6.00 Build 0)  -->
<!DOCTYPE svg PUBLIC "-//W3C//DTD SVG 1.1//EN" "http://www.w3.org/Graphics/SVG/1.1/DTD/svg11.dtd">
<svg version="1.1" xmlns="http://www.w3.org/2000/svg" xmlns:xlink="http://www.w3.org/1999/xlink" x="0px" y="0px"
	 viewBox="0 0 724.2 1305.8" enable-background="new 0 0 724.2 1305.8" xml:space="preserve">
<g id="WATCH">
	<g>
		<g>
			<path fill="#8ECF9B" d="M651.5,311.5c0,0-8-29.3-34-48.7c-26-19.3-28.7-24.7-42.7-53.3c-14-28.7-18-128-21.3-149.3
				s-10.5-30.3-30-37.7c-27.3-10.3-60-18.2-168-18.2c0,0-34.5-0.2-45.7,0.8h0.1V4.6c-79,1.7-107.4,8.8-131.4,17.9
				c-19.5,7.4-26.7,16.3-30.1,37.6s-7.3,120.6-21.3,149.3c-14,28.7-16.7,34-42.7,53.3c-26,19.3-34,48.7-34,48.7l218.7,3.3l81.8-11.2
				l81.8,11.2L651.5,311.5z"/>
		</g>
		<path fill="#8ECF9B" d="M50.5,994.4c0,0,8,29.3,34,48.7s28.7,24.7,42.7,53.3c14,28.7,18,128,21.3,149.3
			c3.3,21.3,10.5,30.3,30,37.7c27.3,10.3,60,18.3,168,18.3c0,0,34.5,0.3,45.7-0.7H392v0.2c79-1.7,107.5-8.8,131.4-17.9
			c19.5-7.4,26.7-16.3,30.1-37.6c3.3-21.3,7.4-120.6,21.4-149.3s16.7-34,42.7-53.3c26-19.3,34-48.7,34-48.7l-218.7-3.3l-81.8,11.2
			l-81.8-11.2L50.5,994.4z"/>
		<g id="cassa">
			<rect x="618" y="430" fill="#1A1A1A" width="74" height="161"/>
			<g id="crown">
				<g>
					<g>
						<linearGradient id="SVGID_1_" gradientUnits="userSpaceOnUse" x1="697.8789" y1="574.0393" x2="697.8789" y2="439.0393">
							<stop  offset="0" style="stop-color:#999999"/>
							<stop  offset="7.798753e-02" style="stop-color:#A2A2A2"/>
							<stop  offset="0.2076" style="stop-color:#BCBCBC"/>
							<stop  offset="0.372" style="stop-color:#E5E5E5"/>
							<stop  offset="0.4187" style="stop-color:#F2F2F2"/>
							<stop  offset="0.5271" style="stop-color:#EFEFEF"/>
							<stop  offset="0.6111" style="stop-color:#E5E5E5"/>
							<stop  offset="0.6869" style="stop-color:#D5D5D5"/>
							<stop  offset="0.7576" style="stop-color:#BEBEBE"/>
							<stop  offset="0.7835" style="stop-color:#B3B3B3"/>
							<stop  offset="0.7848" style="stop-color:#B4B4B4"/>
							<stop  offset="0.8251" style="stop-color:#CFCFCF"/>
							<stop  offset="0.8607" style="stop-color:#E0E0E0"/>
							<stop  offset="0.8876" style="stop-color:#E6E6E6"/>
							<stop  offset="1" style="stop-color:#808080"/>
						</linearGradient>
						<path fill="url(#SVGID_1_)" d="M703.4,574h-27V439h27c8.8,0,16,11.2,16,20.5V553C719.4,562.3,712.2,574,703.4,574z"/>
					</g>
					<defs>
						<filter id="Adobe_OpacityMaskFilter" filterUnits="userSpaceOnUse" x="676.4" y="439" width="43" height="135">
							
								<feColorMatrix  type="matrix" values="-1 0 0 0 1  0 -1 0 0 1  0 0 -1 0 1  0 0 0 1 0" color-interpolation-filters="sRGB" result="source"/>
						</filter>
					</defs>
					<mask maskUnits="userSpaceOnUse" x="676.4" y="439" width="43" height="135" id="SVGID_2_">
						<g filter="url(#Adobe_OpacityMaskFilter)">
							<image overflow="visible" width="48" height="140" xlink:href="DC69FDEE87B8AB55.jpg"  transform="matrix(1 0 0 1 674 437)">
							</image>
						</g>
					</mask>
					<g opacity="0.5" mask="url(#SVGID_2_)">
						<path d="M703.4,574h-27V439h27c8.8,0,16,11.2,16,20.5V553C719.4,562.3,712.2,574,703.4,574z"/>
					</g>
				</g>
				<g>
					<defs>
						<path id="SVGID_3_" d="M703.4,574h-31.5V439h31.5c8.8,0,16,11.2,16,20.5V553C719.4,562.3,712.2,574,703.4,574z"/>
					</defs>
					<clipPath id="SVGID_4_">
						<use xlink:href="#SVGID_3_"  overflow="visible"/>
					</clipPath>
					<g opacity="0.3" clip-path="url(#SVGID_4_)">
						<path d="M717.1,495.2c-3.7-0.7-12.4,0-12.8,0c-0.6,0-1,0.5-0.9,1.1c0,0.6,0.5,1,1.1,0.9c0.1,0,8.7-0.6,12.2,0
							c3,0.5,3.8,1.2,3.7,1.1c0.2,0.2,0.5,0.4,0.8,0.4c0.2,0,0.4-0.1,0.6-0.2c0.4-0.3,0.5-1,0.2-1.4
							C721.7,496.7,720.7,495.9,717.1,495.2z"/>
						<path d="M717.1,485.2c-3.7-0.7-12.4,0-12.8,0c-0.6,0-1,0.5-0.9,1.1s0.5,1,1.1,0.9c0.1,0,8.7-0.6,12.2,0
							c2.9,0.5,3.6,1.7,3.6,1.7v0c0.2,0.4,0.5,0.6,0.9,0.6c0.1,0,0.2,0,0.4-0.1c0.5-0.2,0.8-0.8,0.6-1.3
							C722,487.9,721.1,486,717.1,485.2z"/>
						<path d="M704.5,479.2c0.1,0,8.7-0.6,12.2,0c2.9,0.5,3.5,2.6,3.5,2.7c0.1,0.5,0.5,0.8,1,0.8c0.1,0,0.2,0,0.2,0
							c0.5-0.1,0.9-0.7,0.7-1.2c0-0.1-0.9-3.4-5.1-4.2c-3.7-0.7-12.4,0-12.8,0c-0.6,0-1,0.5-0.9,1.1
							C703.4,478.8,703.9,479.2,704.5,479.2z"/>
						<path d="M704.5,471.2c0.1,0,8.5-0.6,12,0c3,0.5,3.8,3.6,3.8,3.7c0.1,0.5,0.5,0.8,1,0.8c0.1,0,0.2,0,0.2,0
							c0.5-0.1,0.9-0.7,0.7-1.2c0-0.2-1.1-4.4-5.4-5.2c-3.7-0.7-12.2,0-12.5,0c-0.6,0-1,0.5-0.9,1.1
							C703.4,470.8,703.9,471.2,704.5,471.2z"/>
						<path d="M704.4,463.2c0.1,0,7.5-0.1,11.1,0.6c3.1,0.6,4.8,4.8,4.8,4.9c0.2,0.4,0.5,0.6,0.9,0.6c0.1,0,0.2,0,0.4-0.1
							c0.5-0.2,0.8-0.8,0.6-1.3c-0.1-0.2-2.2-5.4-6.3-6.1c-3.7-0.7-11.1-0.6-11.4-0.6c-0.6,0-1,0.5-1,1S703.8,463.2,704.4,463.2z"/>
						<path d="M716.1,455.4c-4.6-1.9-11.6-1.2-11.9-1.2c-0.5,0.1-0.9,0.6-0.9,1.1c0.1,0.5,0.6,0.9,1.1,0.9c0.1,0,6.8-0.7,10.9,1
							c3,1.3,4.9,5.4,4.9,5.4c0.2,0.4,0.5,0.6,0.9,0.6c0.1,0,0.3,0,0.4-0.1c0.5-0.2,0.7-0.8,0.5-1.3
							C722,461.6,719.9,456.9,716.1,455.4z"/>
						<path d="M716.1,450.4c-4.5-1.9-11.4-2.1-11.7-2.2c-0.6,0-1,0.4-1,1c0,0.6,0.4,1,1,1c0.1,0,6.9,0.3,11,2c3,1.3,4.9,5.4,4.9,5.4
							c0.2,0.4,0.5,0.6,0.9,0.6c0.1,0,0.3,0,0.4-0.1c0.5-0.2,0.7-0.8,0.5-1.3c0-0.1-0.3-0.6-0.8-1.4c0.1,0,0.1,0,0.2,0
							c0.5-0.2,0.8-0.8,0.6-1.3c-0.1-0.2-2.2-6.1-6-7.7c-4.5-1.9-11.4-2.1-11.7-2.2c-0.6,0-1,0.4-1,1c0,0.6,0.4,1,1,1
							c0.1,0,6.9,0.3,11,2c1.7,0.7,3.1,2.8,4,4.5C718.5,451.8,717.4,450.9,716.1,450.4z"/>
						<path d="M721.9,512.4c-0.4-0.3-1-0.3-1.4,0.1c0,0-0.8,0.7-3.8,1.2c-3.5,0.6-12.2,0-12.2,0c-0.5,0-1,0.4-1.1,0.9
							c0,0.6,0.4,1,0.9,1.1c0.2,0,4,0.3,7.7,0.3c1.9,0,3.8-0.1,5.1-0.3c3.6-0.7,4.7-1.5,4.9-1.9
							C722.3,513.4,722.3,512.7,721.9,512.4z"/>
						<path d="M721.6,521.5c-0.5-0.2-1.1,0-1.3,0.5c0,0-0.6,1.2-3.6,1.8c-3.5,0.6-12.2,0-12.2,0c-0.5,0-1,0.4-1.1,0.9
							c0,0.6,0.4,1,0.9,1.1c0.2,0,4,0.3,7.7,0.3c1.9,0,3.8-0.1,5.1-0.3c4.1-0.7,5-2.7,5.1-2.9C722.3,522.2,722.1,521.7,721.6,521.5z
							"/>
						<path d="M712,534c1.9,0,3.8-0.1,5.1-0.3c4.3-0.8,5.1-4.1,5.1-4.2c0.1-0.5-0.2-1.1-0.7-1.2c-0.5-0.1-1.1,0.2-1.2,0.7
							c0,0.1-0.6,2.2-3.5,2.7c-3.5,0.6-12.2,0-12.2,0c-0.5,0-1,0.4-1.1,0.9c0,0.6,0.4,1,0.9,1.1C704.5,533.7,708.3,534,712,534z"/>
						<path d="M704.3,541.7c0.2,0,3.9,0.3,7.5,0.3c1.9,0,3.7-0.1,5-0.3c4.3-0.8,5.3-5,5.4-5.2c0.1-0.5-0.2-1.1-0.7-1.2
							c-0.5-0.1-1.1,0.2-1.2,0.7c0,0-0.8,3.2-3.8,3.7c-3.5,0.6-11.9,0-12,0c-0.6,0-1,0.4-1.1,0.9
							C703.3,541.2,703.7,541.7,704.3,541.7z"/>
						<path d="M721.6,541.7c-0.5-0.2-1.1,0-1.3,0.6c-0.5,1.2-2.3,4.4-4.8,4.9c-3.5,0.6-11,0.6-11.1,0.6c-0.6,0-1,0.4-1,1
							c0,0.6,0.4,1,1,1c0.1,0,0.4,0,0.9,0c2.1,0,7.5-0.1,10.5-0.6c4.2-0.8,6.2-5.9,6.3-6.1C722.3,542.5,722.1,541.9,721.6,541.7z"/>
						<path d="M721.6,547.8c-0.5-0.2-1.1,0-1.3,0.5c0,0-1.9,4.1-4.9,5.4c-4.1,1.7-10.8,1-10.9,1c-0.5-0.1-1,0.3-1.1,0.9
							c-0.1,0.5,0.3,1,0.9,1.1c0.1,0,1.5,0.2,3.5,0.2c2.5,0,5.8-0.2,8.4-1.3c3.8-1.6,5.9-6.2,6-6.4
							C722.3,548.6,722.1,548,721.6,547.8z"/>
						<path d="M721.6,552.8c-0.5-0.2-1.1,0-1.3,0.5c0,0-1.9,4.2-4.9,5.4c-4.2,1.7-11,2-11,2c-0.6,0-1,0.5-1,1.1c0,0.5,0.5,1.1,1,1.1
							c0,0,0,0,0,0c0.3,0,7.2-0.4,11.7-2.3c1.2-0.5,2.2-1.3,3.1-2.2c-0.9,1.7-2.3,3.6-3.9,4.3c-4.2,1.7-11,2-11,2.1
							c-0.6,0-1,0.5-1,1.1c0,0.5,0.5,1.1,1,1.1c0,0,0,0,0,0c0.3,0,7.2-0.4,11.7-2.3c3.8-1.6,5.9-7.6,6-7.9c0.2-0.5-0.1-1.1-0.6-1.3
							c-0.1,0-0.1,0-0.2,0c0.5-0.8,0.7-1.4,0.7-1.4C722.3,553.6,722.1,553,721.6,552.8z"/>
						<path d="M720.9,506c0.6,0,1-0.4,1-1s-0.4-1-1-1h-17c-0.6,0-1,0.4-1,1s0.4,1,1,1H720.9z"/>
					</g>
				</g>
				<g>
					<image overflow="visible" width="76" height="159" xlink:href="DC69FDEE87B8AB57.png"  transform="matrix(1 0 0 1 640 427)">
					</image>
				</g>
				<g>
					<image overflow="visible" width="75" height="183" xlink:href="DC69FDEE87B8AB55.png"  transform="matrix(1 0 0 1 644 416)">
					</image>
				</g>
				<g>
					<g>
						<path d="M684.1,562.8c-9.4-14.5-12.2-30-12.2-52s1.9-25,4.9-42c1.7-9.4,9-20.8,15.1-29.8H669v135h22.8
							C689.3,571,686.6,566.7,684.1,562.8z"/>
					</g>
					<defs>
						<filter id="Adobe_OpacityMaskFilter_1_" filterUnits="userSpaceOnUse" x="669" y="439" width="22.9" height="135">
							
								<feColorMatrix  type="matrix" values="-1 0 0 0 1  0 -1 0 0 1  0 0 -1 0 1  0 0 0 1 0" color-interpolation-filters="sRGB" result="source"/>
						</filter>
					</defs>
					<mask maskUnits="userSpaceOnUse" x="669" y="439" width="22.9" height="135" id="SVGID_5_">
						<g filter="url(#Adobe_OpacityMaskFilter_1_)">
							<image overflow="visible" width="27" height="140" xlink:href="DC69FDEE87B8AB53.jpg"  transform="matrix(1 0 0 1 667 437)">
							</image>
						</g>
					</mask>
					<g opacity="0.5" mask="url(#SVGID_5_)">
						<path d="M684.1,562.8c-9.4-14.5-12.2-30-12.2-52s1.9-25,4.9-42c1.7-9.4,9-20.8,15.1-29.8H669v135h22.8
							C689.3,571,686.6,566.7,684.1,562.8z"/>
					</g>
				</g>
			</g>
			<g>
				<g>
					<path fill="#E6E6E6" d="M669.5,511.5c0-51.9,15.5-68.6,22.5-73.7V393c0-75.7-61-136-136.6-136h-413C66.7,257,5,317.3,5,393v527
						c0,75.7,61.7,138,137.4,138h413C631,1058,692,995.6,692,920V579.2C681,569.3,669.5,549.7,669.5,511.5z"/>
				</g>
				<defs>
					<filter id="Adobe_OpacityMaskFilter_2_" filterUnits="userSpaceOnUse" x="5" y="257" width="687" height="801">
						
							<feColorMatrix  type="matrix" values="-1 0 0 0 1  0 -1 0 0 1  0 0 -1 0 1  0 0 0 1 0" color-interpolation-filters="sRGB" result="source"/>
					</filter>
				</defs>
				<mask maskUnits="userSpaceOnUse" x="5" y="257" width="687" height="801" id="SVGID_6_">
					<g filter="url(#Adobe_OpacityMaskFilter_2_)">
						<image overflow="visible" width="692" height="806" xlink:href="DC69FDEE87B8AB5D.jpg"  transform="matrix(1 0 0 1 2 254)">
						</image>
					</g>
				</mask>
				<g opacity="0.3" mask="url(#SVGID_6_)">
					<path d="M669.5,511.5c0-51.9,15.5-68.6,22.5-73.7V393c0-75.7-61-136-136.6-136h-413C66.7,257,5,317.3,5,393v527
						c0,75.7,61.7,138,137.4,138h413C631,1058,692,995.6,692,920V579.2C681,569.3,669.5,549.7,669.5,511.5z"/>
				</g>
			</g>
			<linearGradient id="SVGID_7_" gradientUnits="userSpaceOnUse" x1="348.5" y1="1056.5845" x2="348.5" y2="886.886">
				<stop  offset="0" style="stop-color:#000000"/>
				<stop  offset="1" style="stop-color:#000000;stop-opacity:0"/>
			</linearGradient>
			<path opacity="0.29" fill="url(#SVGID_7_)" d="M669.5,511.5c0-51.9,15.5-68.6,22.5-73.7V393c0-75.7-61-136-136.6-136h-413
				C66.7,257,5,317.3,5,393v527c0,75.7,61.7,138,137.4,138h413C631,1058,692,995.6,692,920V579.2C681,569.3,669.5,549.7,669.5,511.5
				z"/>
			<g>
				<image overflow="visible" width="143" height="140" xlink:href="DC69FDEE87B8AB5F.png"  transform="matrix(1 0 0 1 -7 252)">
				</image>
			</g>
			<g>
				<image overflow="visible" width="141" height="144" xlink:href="DC69FDEE87B8AB5D.png"  transform="matrix(1 0 0 1 564 248)">
				</image>
			</g>
			<g>
				<image overflow="visible" width="563" height="121" xlink:href="DC69FDEE87B8AB53.png"  transform="matrix(1 0 0 1 67 226)">
				</image>
			</g>
			<path fill="#1A1A1A" d="M664,926.8c0,55.8-45.3,101.2-101.1,101.2h-427C80.1,1028,35,982.6,35,926.8v-541
				C35,330,80.1,285,135.9,285h427c55.8,0,101.1,45,101.1,100.8C664,521,664,926.8,664,926.8z"/>
			<g>
				<g>
					<path fill="#1A1A1A" d="M660,927c0,53.6-43.4,97-97,97H136c-53.6,0-97-43.4-97-97V386c0-53.6,43.4-97,97-97h427
						c53.6,0,97,43.4,97,97V927z"/>
				</g>
				<defs>
					<filter id="Adobe_OpacityMaskFilter_3_" filterUnits="userSpaceOnUse" x="39" y="289" width="621" height="735">
						
							<feColorMatrix  type="matrix" values="-1 0 0 0 1  0 -1 0 0 1  0 0 -1 0 1  0 0 0 1 0" color-interpolation-filters="sRGB" result="source"/>
					</filter>
				</defs>
				<mask maskUnits="userSpaceOnUse" x="39" y="289" width="621" height="735" id="SVGID_8_">
					<g filter="url(#Adobe_OpacityMaskFilter_3_)">
						<image overflow="visible" width="626" height="740" xlink:href="DC69FDEE87B8AB56.jpg"  transform="matrix(1 0 0 1 36 286)">
						</image>
					</g>
				</mask>
				<g opacity="0.55" mask="url(#SVGID_8_)">
					<path fill="#FFFFFF" d="M660,927c0,53.6-43.4,97-97,97H136c-53.6,0-97-43.4-97-97V386c0-53.6,43.4-97,97-97h427
						c53.6,0,97,43.4,97,97V927z"/>
				</g>
			</g>
			<g opacity="0.47">
				<linearGradient id="SVGID_9_" gradientUnits="userSpaceOnUse" x1="349.5" y1="1024" x2="349.5" y2="289">
					<stop  offset="0" style="stop-color:#000000;stop-opacity:0"/>
					<stop  offset="1" style="stop-color:#000000"/>
				</linearGradient>
				<path fill="url(#SVGID_9_)" d="M660,927c0,53.6-43.4,97-97,97H136c-53.6,0-97-43.4-97-97V386c0-53.6,43.4-97,97-97h427
					c53.6,0,97,43.4,97,97V927z"/>
			</g>
			<rect x="118" y="359" width="464" height="595"/>
			<linearGradient id="SVGID_10_" gradientUnits="userSpaceOnUse" x1="349.7925" y1="290.1228" x2="349.7925" y2="351.7842">
				<stop  offset="0" style="stop-color:#FFFFFF"/>
				<stop  offset="8.746934e-02" style="stop-color:#F8F8F8;stop-opacity:0.9125"/>
				<stop  offset="0.2166" style="stop-color:#E4E4E4;stop-opacity:0.7834"/>
				<stop  offset="0.3717" style="stop-color:#C3C3C3;stop-opacity:0.6283"/>
				<stop  offset="0.5468" style="stop-color:#969696;stop-opacity:0.4532"/>
				<stop  offset="0.7387" style="stop-color:#5B5B5B;stop-opacity:0.2613"/>
				<stop  offset="0.9418" style="stop-color:#151515;stop-opacity:5.821216e-02"/>
				<stop  offset="1" style="stop-color:#000000;stop-opacity:0"/>
			</linearGradient>
			<path opacity="0.4" fill="url(#SVGID_10_)" d="M562.9,289h-427c-19.8,0-38.2,5.7-53.8,15.5c3.8,12.4,16.4,21.5,31.3,21.5
				c118.2,0,354.8,0,473,0c14.7,0,27.1-8.8,31.1-21C601.7,294.9,583,289,562.9,289z"/>
			<g id="pulsante">
				<g>
					<g>
						<linearGradient id="SVGID_11_" gradientUnits="userSpaceOnUse" x1="694.5" y1="879" x2="694.5" y2="672">
							<stop  offset="0" style="stop-color:#999999"/>
							<stop  offset="7.798753e-02" style="stop-color:#A2A2A2"/>
							<stop  offset="0.2076" style="stop-color:#BCBCBC"/>
							<stop  offset="0.372" style="stop-color:#E5E5E5"/>
							<stop  offset="0.4187" style="stop-color:#F2F2F2"/>
							<stop  offset="0.5271" style="stop-color:#EFEFEF"/>
							<stop  offset="0.6111" style="stop-color:#E5E5E5"/>
							<stop  offset="0.6869" style="stop-color:#D5D5D5"/>
							<stop  offset="0.7576" style="stop-color:#BEBEBE"/>
							<stop  offset="0.7835" style="stop-color:#B3B3B3"/>
							<stop  offset="0.7848" style="stop-color:#B4B4B4"/>
							<stop  offset="0.8251" style="stop-color:#CFCFCF"/>
							<stop  offset="0.8607" style="stop-color:#E0E0E0"/>
							<stop  offset="0.8876" style="stop-color:#E6E6E6"/>
							<stop  offset="1" style="stop-color:#808080"/>
						</linearGradient>
						<path fill="url(#SVGID_11_)" d="M701,672.6c-1-0.5-2.5-0.6-3.9-0.6h-0.5c-4.8,0-8.6,3.7-8.6,8.5V870c0,4.8,3.8,9,8.6,9h0.5
							c1.3,0,2.9-0.5,3.9-1.1V672.6z"/>
					</g>
					<defs>
						<filter id="Adobe_OpacityMaskFilter_4_" filterUnits="userSpaceOnUse" x="688" y="672" width="13" height="207">
							
								<feColorMatrix  type="matrix" values="-1 0 0 0 1  0 -1 0 0 1  0 0 -1 0 1  0 0 0 1 0" color-interpolation-filters="sRGB" result="source"/>
						</filter>
					</defs>
					<mask maskUnits="userSpaceOnUse" x="688" y="672" width="13" height="207" id="SVGID_12_">
						<g filter="url(#Adobe_OpacityMaskFilter_4_)">
							<image overflow="visible" width="18" height="212" xlink:href="DB51B3799DB0C35E.jpg"  transform="matrix(1 0 0 1 685 669)">
							</image>
						</g>
					</mask>
					<g opacity="0.5" mask="url(#SVGID_12_)">
						<path d="M701,672.6c-1-0.5-2.5-0.6-3.9-0.6h-0.5c-4.8,0-8.6,3.7-8.6,8.5V870c0,4.8,3.8,9,8.6,9h0.5c1.3,0,2.9-0.5,3.9-1.1
							V672.6z"/>
					</g>
				</g>
				<linearGradient id="SVGID_13_" gradientUnits="userSpaceOnUse" x1="700.9634" y1="877.9359" x2="700.9635" y2="672.6427">
					<stop  offset="0" style="stop-color:#333333"/>
					<stop  offset="5.801424e-03" style="stop-color:#3C3C3C"/>
					<stop  offset="1.510639e-02" style="stop-color:#535353"/>
					<stop  offset="2.668359e-02" style="stop-color:#797979"/>
					<stop  offset="3.507343e-02" style="stop-color:#999999"/>
					<stop  offset="4.123626e-02" style="stop-color:#909090"/>
					<stop  offset="5.148425e-02" style="stop-color:#767676"/>
					<stop  offset="6.447017e-02" style="stop-color:#4D4D4D"/>
					<stop  offset="7.171544e-02" style="stop-color:#333333"/>
					<stop  offset="0.1504" style="stop-color:#989898"/>
					<stop  offset="0.2133" style="stop-color:#E2E2E2"/>
					<stop  offset="0.2422" style="stop-color:#FFFFFF"/>
					<stop  offset="0.4491" style="stop-color:#FDFDFD"/>
					<stop  offset="0.5359" style="stop-color:#F6F6F6"/>
					<stop  offset="0.6002" style="stop-color:#E9E9E9"/>
					<stop  offset="0.6534" style="stop-color:#D8D8D8"/>
					<stop  offset="0.6993" style="stop-color:#C1C1C1"/>
					<stop  offset="0.7216" style="stop-color:#B3B3B3"/>
					<stop  offset="0.7462" style="stop-color:#ADADAD"/>
					<stop  offset="0.7795" style="stop-color:#9C9C9C"/>
					<stop  offset="0.8176" style="stop-color:#808080"/>
					<stop  offset="0.859" style="stop-color:#595959"/>
					<stop  offset="0.8931" style="stop-color:#333333"/>
					<stop  offset="0.8956" style="stop-color:#4C4C4C"/>
					<stop  offset="0.9002" style="stop-color:#757575"/>
					<stop  offset="0.9052" style="stop-color:#989898"/>
					<stop  offset="0.9104" style="stop-color:#B4B4B4"/>
					<stop  offset="0.916" style="stop-color:#CACACA"/>
					<stop  offset="0.9221" style="stop-color:#DADADA"/>
					<stop  offset="0.929" style="stop-color:#E3E3E3"/>
					<stop  offset="0.9389" style="stop-color:#E6E6E6"/>
					<stop  offset="0.9456" style="stop-color:#DEDEDE"/>
					<stop  offset="0.9559" style="stop-color:#C9C9C9"/>
					<stop  offset="0.9685" style="stop-color:#A7A7A7"/>
					<stop  offset="0.9828" style="stop-color:#777777"/>
					<stop  offset="0.9984" style="stop-color:#3A3A3A"/>
					<stop  offset="1" style="stop-color:#333333"/>
				</linearGradient>
				<path fill="url(#SVGID_13_)" d="M703.9,874.4c-0.6-1.8-0.9-3.8-0.9-5.9V681c0-1.5,0.1-3,0.5-4.4c-0.7-1.7-1.5-2.6-2.5-4
					c-1.3,2.5-3,5.4-3,8.4v187.5c0,3.5,1.3,6.6,3,9.4L703.9,874.4z"/>
			</g>
		</g>
	</g>
</g>
<g id="STUFF">
</g>
<g id="INTERFACE">
</g>
</svg>
